<?xml version="1.0" standalone="no"?>
<!DOCTYPE svg PUBLIC "-//W3C//DTD SVG 1.1//EN" "http://www.w3.org/Graphics/SVG/1.1/DTD/svg11.dtd" >
<svg xmlns="http://www.w3.org/2000/svg">
<metadata>Generated by IcoMoon</metadata>
<defs>
<font id="icomoon" horiz-adv-x="1024">
<font-face units-per-em="1024" ascent="960" descent="-64" />
<missing-glyph horiz-adv-x="1024" />
<glyph unicode="&#x20;" horiz-adv-x="512" d="" />
<glyph unicode="&#xe900;" glyph-name="ini-productsale" d="M470.979 442.638c-11.8-1.942-29.3-12.691-54.678-28.86-13.595-8.697-34.178-21.832-38.083-22.716-12.667 3.147-112.944 29.239-112.944 29.239-3.082 0.887-6.25 0.253-8.847-1.457-2.618-1.731-4.39-4.454-4.857-7.537l-26.873-173.090c-0.843-5.594 2.618-10.912 8.086-12.39l88.497-23.729c-6.796-10.028-7.683-23.603-1.645-35.232 7.834-15.053 24.593-25.863 41.694-27.194 0.993-1.857 2.178-3.738 3.505-5.571 9.752-13.155 26.621-21.767 43.315-22.255 1.437-2.533 3.191-5.048 5.216-7.492 9.943-11.779 25.143-19.466 40.428-20.582 1.457-2.997 3.294-5.871 5.489-8.636 9.288-11.312 23.392-18.070 37.724-18.070 12.52 0 23.559 5.53 30.444 15.37 3.693 5.53 22.968 38.97 22.968 38.97 6.523-2.765 10.342-4.41 10.66-4.536 18.176-7.117 36.84 2.362 44.25 21.934 1.287 3.461 2.154 6.861 2.618 10.216 19.145-7.113 41.23 2.976 48.742 21.681 2.512 6.25 3.229 12.667 2.239 18.811 3.376 0.655 132.407 37.031 132.407 37.031 5.427 1.519 8.827 6.861 7.96 12.394l-31.539 196.12c-0.488 3.058-2.26 5.782-4.857 7.492-2.553 1.669-5.721 2.239-8.803 1.457l-109.568-27.948c-5.106 1.498-19.76 8.612-59.047 32.13-32.973 19.804-42.37 24.849-51.845 24.849-11.571 0-35.997-12.585-52.419-22.634-3.14 1.601-6.373 2.297-10.237 2.236zM739.659 397.247l24.955-154.914-47.288-13.237c4.751 5.028 8.571 11.063 11.104 17.882 6.352 18.575 1.12 37.325-14.015 49.251-0.341 0.253-83.517 46.974-148.961 87.293-1.754 1.075-3.758 1.645-5.806 1.645-0.147 0-20.224-0.761-20.224-0.761-1.478-0.065-2.932-0.42-4.287-1.055-23.095-10.875-25.607-19.784-26.409-22.736-2.13-7.707-12.052-43.913-16.93-62.846-11.718-2.068-34.516 8.571-38.298 16.551 1.266 6.038 2.915 14.524 4.731 23.77 3.884 19.93 8.721 44.732 11.083 52.903 4.939 9.332 54.214 38.506 63.017 40.090 4.413-1.14 22.231-11.756 36.523-20.285 37.195-22.231 62.676-36.816 78.339-36.816 6.779 0 68.656 17.186 92.467 23.265zM497.009 89.194c-4.495 0-9.793 2.639-12.814 6.42-2.451 3.021-3.229 6.332-2.406 10.090 0.928 4.243-0.717 8.636-4.181 11.23-1.963 1.461-4.287 2.198-6.608 2.198-1.836 0-3.697-0.464-5.362-1.393-8.025-4.454-21.279-0.464-27.822 7.41-1.942 2.301-4.096 5.932-3.318 10.069 0.823 4.454-1.181 8.994-5.024 11.401-3.884 2.345-8.803 2.174-12.435-0.526-2.362-1.775-5.362-2.133-7.455-2.133-6.987 0-14.967 3.884-18.917 9.226-3.205 4.345-2.212 7.601-1.877 8.653 1.413 4.584-0.317 9.564-4.243 12.329-3.946 2.703-9.202 2.598-13.005-0.253-5.977-4.495-15.179-1.731-20.985 4.495-2.679 2.85-3.103 4.919-3.144 5.048l18.534 27.211c2.724 4.434 10.134 0.317 14.78-4.98 2.301-2.639 2.973-4.837 2.847-5.68-0.672-5.192 2.386-10.175 7.345-11.906 4.919-1.69 10.455 0.317 13.114 4.813 7.154 12.015 13.172 18.599 17.541 19.487 7.072 1.055 13.155-1.481 18.156-6.612 3.465-3.587 4.939-7.345 4.857-9.458-0.171-5.048 3.079-9.564 7.936-11.001 4.833-1.413 9.987 0.594 12.602 4.919 8.868 14.756 27.126 7.137 33.314-2.236 1.857-2.83 2.577-5.553 1.901-7.182-2.028-4.768-0.488-10.322 3.758-13.339 4.267-3.041 10.008-2.659 13.851 0.864 4.328 3.925 15.053-0.065 18.685-6.479 2.048-3.628 1.775-7.492-0.843-11.824-3.611-5.953-30.843-53.449-35.024-59.638-0.737-1.055-2.635-1.225-3.758-1.225zM526.438 736.689c-8.277 7.158-20.603 7.158-28.88 0l-333.216-287.427c-4.857-4.181-7.663-10.301-7.663-16.719v-415.672c0-12.223 9.882-22.105 22.105-22.105h666.433c12.223 0 22.105 9.882 22.105 22.105v415.672c0 6.42-2.809 12.541-7.663 16.719l-333.22 287.427zM823.112 38.973h-622.223v383.437l311.112 268.343 311.112-268.343v-383.437zM983.006 510.297l-442.191 380.249c-16.572 14.251-41.059 14.251-57.634 0l-442.187-380.249c-18.517-15.94-20.627-43.872-4.71-62.365 15.94-18.534 43.872-20.603 62.365-4.707l413.351 355.468 413.355-355.468c8.339-7.178 18.599-10.684 28.798-10.684 12.452 0 24.805 5.216 33.567 15.391 15.913 18.493 13.804 46.425-4.714 62.365z" />
<glyph unicode="&#xe901;" glyph-name="ini-productpurchase" d="M995.554 825.043c-17.611 15.217-113.488 87.792-131.385 103.248-17.897 15.468-45.914 19.814-65.621 19.814h-573.060c-19.707 0-47.724-4.346-65.621-19.814-17.897-15.456-113.774-88.042-131.385-103.248-17.623-15.217-32.292-38.175-27.589-70.92 4.715-32.745 115.298-772.34 115.298-772.34 6.216-18.635 27.422-33.888 47.129-33.888h697.384c19.707 0 40.925 15.253 47.129 33.888 0 0 110.583 739.595 115.286 772.34s-9.954 55.702-27.565 70.92zM512.012 306.982c-193.35 0-234.775 273.688-243.337 330.093h109.332c16.492-82.255 53.928-222.928 134.004-222.928s117.513 140.66 134.004 222.928h109.332c-8.561-56.405-49.975-330.093-243.337-330.093zM93.067 745.681l131.313 136.933h575.263l131.325-136.933h-837.902z" />
<glyph unicode="&#xe902;" glyph-name="ini-maininventory" d="M968.835 277.333v513.724h-510.276v168.943h-341.333v-168.943h-58.613v-513.724h-58.613v-341.333h1024v341.333h-55.165zM741.279 677.279h113.778v-113.778h-113.778v113.778zM741.279 449.724h113.778v-113.778h-113.778v113.778zM513.724 677.279h113.778v-113.778h-113.778v113.778zM513.724 449.724h113.778v-113.778h-113.778v113.778zM172.391 904.835h227.556v-341.333h-227.556v341.333zM910.222 167.003h-796.444v51.717h796.444v-51.717z" />
<glyph unicode="&#xe903;" glyph-name="ini-attendanceoverviewreport" d="M848.618 134.114c43.285 18.244 73.789 60.976 73.789 110.829 0 66.439-53.821 120.163-120.195 120.163-66.341 0-120.13-53.724-120.13-120.163 0-49.854 30.439-92.65 73.756-110.829-39.317-9.886-73.756-31.837-99.154-61.659-25.333 29.854-59.837 51.805-99.089 61.659 43.252 18.244 73.756 60.976 73.756 110.829 0 66.439-53.821 120.163-120.163 120.163-66.407 0-120.195-53.724-120.195-120.163 0-49.854 30.439-92.65 73.756-110.829-39.317-9.886-73.789-31.837-99.154-61.659-25.366 29.854-59.837 51.805-99.154 61.659 43.35 18.244 73.756 60.976 73.756 110.829 0 66.439-53.789 120.163-120.195 120.163-66.341 0-120.163-53.724-120.163-120.163 0-49.854 30.439-92.65 73.756-110.829-63.024-15.837-113.691-62.569-134.179-123.642h943.252c-20.423 61.073-71.089 107.772-134.049 123.642zM0 885.496v-792.488h49.138c16.325 19.447 35.74 36.065 57.789 48.976-25.171 27.577-39.87 64.033-39.87 102.959 0 34.439 11.837 65.821 31.089 91.447v450.927h827.74v-453.301c18.179-25.106 29.171-55.74 29.171-89.073 0-38.927-14.667-75.382-39.87-102.959 22.114-12.878 41.496-29.528 57.789-48.976h50.992v792.488h-1023.967z" />
<glyph unicode="&#xe904;" glyph-name="ini-onlineexamreport" d="M118.020 645.243h265.807c11.501 0 20.82 9.322 20.82 20.82s-9.319 20.82-20.82 20.82h-265.807c-11.498 0-20.82-9.322-20.82-20.82s9.319-20.82 20.82-20.82zM118.020 488.687h265.807c11.501 0 20.82 9.322 20.82 20.82s-9.319 20.82-20.82 20.82h-265.807c-11.498 0-20.82-9.322-20.82-20.82s9.319-20.82 20.82-20.82zM118.020 332.125h265.807c11.501 0 20.82 9.322 20.82 20.82s-9.319 20.82-20.82 20.82h-265.807c-11.498 0-20.82-9.322-20.82-20.82s9.319-20.82 20.82-20.82zM404.647 196.388c0 11.498-9.319 20.82-20.82 20.82h-265.807c-11.498 0-20.82-9.322-20.82-20.82s9.322-20.82 20.82-20.82h265.807c11.498 0 20.82 9.322 20.82 20.82zM1023.439 824.302c-1.277 5.372-4.633 10.019-9.333 12.917l-48.328 29.792c-9.783 6.032-22.613 2.993-28.646-6.796l-11.726-19.016c-0.747 0.175-1.505 0.322-2.282 0.416-0.763 0.094-1.56 0.189-2.349 0.283v46.099c0 11.498-9.322 20.82-20.82 20.82h-838.712c-11.501 0-20.82-9.322-20.82-20.82v-48.891c-12.797-1.455-20.662-2.498-22.389-2.732-10.332-1.396-18.036-10.213-18.036-20.634v-753.549c0-6.055 2.634-11.806 7.218-15.762 3.806-3.284 8.642-5.058 13.603-5.058 1.010 0 2.029 0.072 3.048 0.225 0.364 0.056 6.202 0.899 16.556 2.165v-35.761c0-11.498 9.319-20.82 20.82-20.82h838.712c11.498 0 20.82 9.322 20.82 20.82v38.023c21.536-2.437 33.937-4.322 34.456-4.403 6.030-0.927 12.128 0.805 16.751 4.758 4.619 3.956 7.279 9.733 7.279 15.815v678.832l41.64 67.543c2.898 4.7 3.811 10.357 2.537 15.732zM961.648 820.641l12.884-7.942-326.81-530.098-19.585-18.794 6.965 27.166 326.546 529.668zM82.065 867.178h797.071v-20.773c-90.562 8.7-247.41 16.917-389.618-9.5-143.52 25.043-315.967 14.924-407.454 6.471v23.802zM41.64 85.916v711.367c60.856 6.904 263.783 26.372 427.172 0.833v-711.767c-179.42 24.865-362.701 7.326-427.172-0.433zM879.136 28.819h-797.071v19.463c85.132 8.192 250.25 18.141 404.261-6.646 2.132-0.344 4.311-0.353 6.438-0.028 150.341 22.877 299.633 16.17 386.372 8.575v-21.364zM937.621 86.052c-63.019 7.867-239.729 25.087-427.169 0.133v712.139c148.756 25.17 312.033 12.728 390.933 3.911l-71.116-115.352h-237.411c-11.501 0-20.82-9.322-20.82-20.82s9.319-20.82 20.82-20.82h211.738l-70.844-114.919h-140.894c-11.501 0-20.82-9.322-20.82-20.82s9.319-20.82 20.82-20.82h115.222l-70.847-114.919h-44.372c-11.501 0-20.82-9.322-20.82-20.82s9.319-20.82 20.82-20.82h18.699l-13.483-21.867c-0.397-0.638-0.766-1.299-1.097-1.988-0.078-0.161-0.136-0.33-0.211-0.494-0.203-0.452-0.411-0.905-0.586-1.38-0.261-0.702-0.477-1.419-0.655-2.135l-25.873-100.908c-0.028-0.111-0.042-0.219-0.064-0.328-0.094-0.394-0.175-0.791-0.244-1.188-0.056-0.303-0.108-0.605-0.15-0.908-0.044-0.333-0.072-0.669-0.1-1.005-0.033-0.361-0.064-0.722-0.072-1.083-0.011-0.278-0.003-0.558 0-0.838 0.003-0.403 0.006-0.805 0.033-1.205 0.017-0.261 0.053-0.522 0.078-0.78 0.042-0.403 0.081-0.805 0.147-1.202 0.050-0.291 0.114-0.577 0.175-0.863 0.075-0.358 0.147-0.716 0.239-1.069 0.086-0.336 0.197-0.666 0.303-0.999 0.094-0.297 0.18-0.591 0.289-0.88 0.136-0.364 0.289-0.722 0.444-1.080 0.111-0.253 0.214-0.511 0.336-0.758 0.169-0.35 0.355-0.691 0.544-1.033 0.142-0.255 0.278-0.511 0.428-0.758 0.18-0.3 0.383-0.594 0.583-0.886 0.194-0.286 0.389-0.569 0.594-0.847 0.18-0.239 0.372-0.466 0.564-0.7 0.264-0.316 0.527-0.63 0.811-0.933 0.072-0.081 0.136-0.167 0.211-0.244 0.105-0.111 0.222-0.203 0.328-0.308 0.322-0.319 0.65-0.633 0.991-0.933 0.197-0.175 0.403-0.344 0.605-0.511 0.325-0.264 0.661-0.522 1.008-0.766 0.239-0.172 0.48-0.339 0.727-0.5 0.316-0.205 0.641-0.403 0.972-0.594 0.289-0.167 0.58-0.328 0.872-0.477 0.18-0.094 0.358-0.192 0.541-0.28 3.398-2.407 7.537-3.834 12.015-3.834h265.807c11.501 0 20.82 9.322 20.82 20.82s-9.319 20.82-20.82 20.82h-218.951l38.565 37.004c0.033 0.031 0.064 0.064 0.097 0.094l0.089 0.086c0.569 0.547 1.097 1.124 1.588 1.718 0.128 0.153 0.242 0.316 0.364 0.472 0.419 0.533 0.811 1.083 1.171 1.649 0.058 0.089 0.128 0.169 0.183 0.258l45.396 73.637h131.495c11.501 0 20.82 9.322 20.82 20.82s-9.319 20.82-20.82 20.82h-105.822l70.847 114.919h34.975c11.501 0 20.82 9.322 20.82 20.82s-9.319 20.82-20.82 20.82h-9.302l88.258 143.16v-587.431z" />
<glyph unicode="&#xe905;" glyph-name="ini-progresscardreport" d="M789.613 748.869c-11.411 9.717-27.376 8.872-40.995 3.549-20.93 98.65-103.807 178.865-217.385 179.886-99.189 0.887-190.174-80.162-220.741-175.059-4.442 3.073-10.358 4.543-15.42 4.148-14.885-1.165-26.799-13.207-32.828-26.222-6.457-13.939-9.108-31.011-0.668-44.79 8.113-13.25 23.747-17.766 38.862-17.258 1.791-19.712 6.574-39.188 15.014-57.858 3.25-7.173 15.687-3.731 14.955 4.051-5.372 57.232 4.559 117.084 29.835 166.828 61.941 6.040 102.236-62.957 164.305-64.149 65.886-1.261 119.505 43.518 184.226 49.066 15.206-47.061 15.083-100.205-3.399-147.389-7.713-19.701 23.945-28.119 31.583-8.707 6.195 15.746 10.513 31.689 13.261 47.622 9.102-10.877 24.843-0.786 31.679 7.13 9.353 10.834 15.254 25.436 17.429 39.472 2.090 13.496 1.603 30.049-9.712 39.68zM887.579 445.587c-0.978 34.282-5.751 68.018-0.508 102.231 1.053 6.852-0.417 15.259-7.563 18.595-120.563 56.153-261.587-14.714-373.764-64.421-81.509 87.099-230.148 122.771-344.736 92.968-4.244 1.486-9.353 0.7-13.089-2.544-16.558-14.367-10.679-45.629-8.83-64.956 2.672-27.895 7.162-56.773 13.416-84.069 0.251-1.112 0.775-2.031 1.411-2.827-1.475-4.896 0.62-10.385 4.981-13.709 37.831-28.835 65.111-51.882 84.416-98.126 37.115-88.922-2.491-171.938-94.972-195.396-6.852-1.737-11.812-8.439-11.764-15.447 0.134-18.792-5.366-50.958 13.448-62.481 4.271-2.614 9.605-2.117 13.592 0.438 76.383-2.988 152.525 2.993 225.498-24.233 27.547-10.278 54.48-22.16 80.766-35.319 9.059-4.538 17.777-9.637 26.264-15.158 2.993-1.785 5.521-4.057 7.579-6.815 0.134-0.198 0.224-0.331 0.347-0.518 1.213-6.494 8.317-11.855 14.949-9.557 10.364 3.586 14.944 8.268 15.543 13.549 16.922 2.603 30.38 11.107 46.174 18.514 27.595 12.951 57.195 21.577 86.698 28.899 62.321 15.457 127.955 19.38 191.468 9.61 10.454-1.609 20.957 4.26 20.962 15.965 0.005 16.414 5.617 43.796-4.559 58.344-5.275 7.536-14.34 8.616-20.781 3.383-5.452 0.305-10.711-0.235-17.146-0.652-21.492-1.39-37.291 17.125-48.451 32.721-20.193 28.226-30.572 65.79-31.935 100.13-1.967 49.472 22.229 101.83 58.456 134.257 18.659 16.703 46.334 18.418 64.688 34.854-0.064 0.037-0.123 0.075-0.187 0.107 0.775 0.759 1.534 1.614 2.314 2.64 4.073 5.366 2.245 11.374-1.785 15.495 4.26 2.459 7.29 6.964 7.098 13.528zM773.087 382.293c-35.666-39.049-54.811-106.335-46.981-158.469 6.916-46.030 25.479-95.042 62.518-125.112 14.287-11.593 38.178-19.252 56.634-14.378-0.091-4.912 0.134-9.931 0.46-14.805-58.056 6.259-115.347 2.181-172.846-10.299-41.829-9.081-117.666-28.616-143.771-67.885-1.956 2.394-4.436 4.832-7.178 7.274 14.089 154.236 4.458 312.17 2.742 466.711-0.128 11.358-17.515 11.358-17.622 0-1.416-151.825-4.228-305.457 2.822-457.272-24.864 17.413-60.252 33.143-66.035 35.613-91.461 39.081-175.669 39.883-273.212 34.159 0.171 9.172-0.78 18.803-1.459 28.028 73.994 22.491 121.44 79.595 119.58 160.217-1.069 46.211-20.508 96.747-50.637 131.627-14.089 16.318-25.58 27.36-44.742 36.724-7.793 3.811-15.746 7.333-23.651 10.893-0.326 0.15-0.572 0.235-0.871 0.363 4.083 24.153 0.764 49.178-0.828 73.449-0.866 13.17-1.342 26.286-0.834 39.477 0.235 6.152 1.481 11.299 1.956 16.574 111.696 10.118 234.691-16.323 315.682-97.463 7.477-7.488 16.815-5.356 22.331 0.524 106.715 29.316 234.136 108.831 346.409 63.753-2.998-32.229 0.198-63.716 1.277-96.41 0.123-3.741 1.293-6.793 3.068-9.209-31.406-4.853-66.009-33.496-84.812-54.084zM165.497 326.969c11.401 24.939 12.796 57.719-12.988 74.127-39.349 25.041-75.122 0.021-104-28.718-30.236-30.091-55.244-74.881-46.88-119.051 4.426-23.378 15.34-42.203 30.123-57.788 16.82-21.983 40.263-38.825 65.763-43.913 1.491-0.299 2.934-0.289 4.329-0.128 46.19-11.427 81.936 22.801 65.773 65.934 46.302 25.003 45.34 87.388-2.122 109.537zM132.52 326.36c-0.871-1.187-1.358-2.517-1.684-3.886-0.241 0.027-0.47-0.053-0.711-0.043 9.701 20.604 16.008 41.738 12.192 58.964 9.615-14.025-5.136-48.681-9.797-55.036zM879.128 408.483c-45.543-9.177-72.262-74.806-34.517-98.030-34.068-21.069-42.064-66.137-6.243-86.95-19.893-26.746 10.091-62.845 50.060-74.534 70.888-20.738 131.429 62.048 135.288 123.989 5.078 81.477-60.867 152.397-144.588 135.524z" />
<glyph unicode="&#xe906;" glyph-name="ini-studentfinereport" d="M469.211 536.999c-3.658-4.669-7.375-9.339-11.033-14.003-19.325 4.61-37.704 4.041-54.981-1.664-17.337-5.741-30.119-13.829-38.596-24.533-9.453-11.925-12.015-22.719-7.669-32.112 4.4-9.398 15.787-18.169 34.255-26.167-15.164-19.181-30.358-38.326-45.522-57.477-15.403 4.963-22.893 12.279-22.48 21.737 0.12 5.322 3.658 12.907 10.525 22.719-8.297 2.203-16.679 4.46-24.857 6.927-9.573-12.129-14.511-22.45-14.865-31.131-0.623-15.907 12.189-28.161 39.014-36.338-5.442-6.807-10.794-13.649-16.206-20.456 4.49-1.131 9.070-2.233 13.589-3.329 5.442 6.807 10.794 13.619 16.206 20.456 18.463-2.915 33.926-3.359 46.414-1.455 22.599 3.538 41.062 14.332 55.873 33.094 10.29 12.937 11.775 24.593 4.34 34.639-4.639 6.154-16.146 14.362-34.729 24.353 13.53 17.128 27.059 34.225 40.649 51.383 12.967-3.628 19.505-9.722 19.923-18.433 0.179-4.699-1.605-9.842-5.173-15.314 8.297-2.203 16.505-4.46 24.707-6.807 8.92 12.074 11.417 23.162 7.046 33.154-4.251 9.991-15.493 17.87-33.747 23.521 3.658 4.61 7.256 9.249 10.913 13.799-4.5 1.181-9.080 2.342-13.599 3.438zM422.264 418.656c5.113-6.807 4.221-14.691-2.736-23.491-4.4-5.531-9.932-9.991-16.505-13.38-12.668-6.603-27.383-8.058-44.127-4.61 14.601 18.493 29.257 36.931 43.948 55.424 10.051-5.317 16.535-10.016 19.42-13.943zM406.412 457.73c-9.453 4.161-15.817 9.070-18.941 14.601-3.149 5.531-1.963 11.835 3.478 18.762 4.61 5.771 11.626 10.584 21.084 14.511 9.513 3.897 20.636 4.43 33.632 1.664-13.086-16.535-26.167-33.069-39.253-49.539zM0 488.89c86.53 109.303 173.054 218.577 259.644 327.855 15.344-93.755 67.14-141.416 133.064-171.27-0.239-5.322-0.12-10.734 0.683-16.086l1.874-13.799c2.885-20.103 13.679-37.704 29.675-48.497-72.108-1.161-142.253-26.671-181.471-76.15-53.999-68.211-33.094-153.161 60.093-173.084 93.187-19.893 200.114 3.658 252.119 69.312 53.969 68.181 33.034 153.221-60.093 173.114-1.281 0.269-2.556 0.503-3.837 0.772l93.84 27.533c101.634-28.071 192.529-69.666 213.733-199.311-86.614-109.333-173.144-218.607-259.704-327.855-50.012 306.477-489.578 121.019-539.62 427.466zM845.713 263.531v195.15c0 26.551-7.555 70.025-16.505 95.001l-77.993 218.044c-2.855 7.879-8.591 14.153-16.206 17.75-7.614 3.568-16.146 3.957-23.995 1.101l-231.543-84.208c-17.78-6.453-31.011-28.544-28.335-47.306l1.844-13.141c1.042-7.729 4.879-14.033 10.555-17.75 5.741-3.718 13.051-4.52 20.546-2.347l128.808 37.704 77.43 23.611v-114.954l-42.074 21.054v14.033c0 4.52-1.012 10.704-5.771 14.302-4.221 3.125-10.525 3.688-17.721 1.605l-128.868-37.704c-19.121-5.591-39.189-2.945-55.13 7.345-15.907 10.32-26.641 27.473-29.496 47.157l-1.754 13.201c-5.531 38.655 18.941 79.394 55.633 92.744l231.543 84.208c18.463 6.722 38.386 5.801 56.226-2.556 17.87-8.387 31.31-23.162 37.883-41.63l78.023-218.014c10.614-29.675 18.941-77.635 18.941-109.154v-195.15c0-40.559-32.974-73.653-73.623-73.653h-141.152c11.093 14.063 22.21 28.041 33.273 42.074h107.878c17.392-0.095 31.579 14.058 31.579 31.484zM1024 195.44l-113.41 0.623v330.591l113.41-0.448v-330.765z" />
<glyph unicode="&#xe907;" glyph-name="ini-idcardreport" d="M1010.517 607.65c-9.793 10.744-23.659 16.873-38.201 16.873h-920.636c-14.537 0-28.408-6.129-38.201-16.873s-14.605-25.121-13.256-39.597l49.121-527.641c2.475-26.574 24.77-46.889 51.457-46.889h822.394c26.687 0 48.982 20.32 51.457 46.889l49.121 527.641c1.349 14.475-3.463 28.853-13.256 39.597zM684.369 101.746c-0.036 0.005-0.067 0.005-0.103 0h-344.531c-28.542 0-51.679 23.142-51.679 51.679 0 70.181 57.095 127.276 127.276 127.276h37.090c-38.145 21.075-64.046 61.705-64.046 108.279 0 68.165 55.457 123.627 123.627 123.627s123.627-55.457 123.627-123.627c0-46.573-25.902-87.204-64.046-108.279h37.090c68.749 0 124.94-54.796 127.203-123.007 0.114-1.406 0.176-2.832 0.176-4.269-0.005-28.542-23.142-51.679-51.684-51.679zM924.574 720.735c0-21.411-17.354-38.759-38.759-38.759h-747.629c-21.406 0-38.759 17.349-38.759 38.759s17.354 38.759 38.759 38.759h747.629c21.406 0 38.759-17.349 38.759-38.759zM822.249 863.716c0-21.411-17.354-38.759-38.759-38.759h-542.979c-21.406 0-38.759 17.349-38.759 38.759s17.354 38.759 38.759 38.759h542.974c21.411 0 38.765-17.349 38.765-38.759z" />
<glyph unicode="&#xe908;" glyph-name="ini-marksheetreport" d="M964.465 817.116h-416.744v-738.233h416.744c32.88 0 59.535 26.655 59.535 59.535v619.163c0 32.88-26.655 59.535-59.535 59.535zM619.163 365.447v165.902h261.953v-165.902h-261.953zM881.116 293.209v-71.442h-261.953v71.442h261.953zM619.163 602.791v71.442h261.953v-71.442h-261.953zM476.279 817.116h-416.744c-32.88 0-59.535-26.655-59.535-59.535v-619.163c0-32.88 26.655-59.535 59.535-59.535h416.744v738.233zM142.884 602.791v71.442h261.953v-71.442h-261.953zM404.837 531.349v-161.935h-95.256v161.935h95.256zM238.14 531.349v-161.935h-95.256v161.935h95.256zM404.837 293.209v-71.442h-261.953v71.442h261.953z" />
<glyph unicode="&#xe909;" glyph-name="ini-meritstagereport" d="M665.895 378.218h27.376v26.675h15.585c0.613 0 1.372 0 1.985 0v-26.675h27.376v28.952c4.582 0.759 8.668 1.897 12.112 3.269 9.456 3.911 16.752 9.339 21.977 16.577 5.166 7.15 7.793 15.118 7.793 23.728 0 7.209-1.722 13.746-5.137 19.554-3.356 5.837-7.968 10.39-13.805 13.688-4.057 2.276-9.806 4.436-17.453 6.392 7.121 2.393 12.783 5.428 17.103 9.106 4.261 3.648 7.617 7.909 9.865 12.754 2.276 4.786 3.473 9.865 3.473 15.206 0 7.413-2.16 14.097-6.508 20.255-4.378 6.158-10.536 10.828-18.649 14.097-3.064 1.343-6.771 2.218-10.857 3.035v28.602h-27.376v-26.617h-17.628v26.617h-27.376v-26.617h-41.939v-22.414h6.421c4.261 0 7.121-0.438 8.668-1.197 1.547-0.73 2.568-1.809 3.152-3.123 0.613-1.313 0.905-4.319 0.905-9.106v-90.387c0-4.728-0.321-7.793-0.905-9.135s-1.693-2.393-3.152-3.094c-1.547-0.642-4.378-1.080-8.668-1.080h-6.421v-22.444h41.939v-26.617h0.146zM683.289 540.635h17.716c10.332 0 17.628-0.613 21.568-1.868 4.086-1.313 7.092-3.386 9.223-6.45 2.072-3.035 3.094-6.683 3.094-10.945 0-4.115-1.080-7.705-3.298-10.828-2.218-3.094-5.574-5.487-10.098-7.005-4.436-1.488-11.353-2.306-20.576-2.306h-17.686l0.058 39.4zM683.289 477.419h20.984c9.164 0 16.023-0.846 20.517-2.568 4.436-1.722 7.822-4.232 10.040-7.588 2.276-3.298 3.356-7.355 3.356-12.141 0-5.691-1.547-10.478-4.728-14.534-3.123-4.086-7.005-6.683-11.557-7.909-4.407-1.313-10.186-1.926-17.044-1.926h-11.791c-3.94 0-6.392 0.233-7.238 0.613-0.876 0.467-1.547 1.197-1.868 2.189-0.321 0.905-0.555 3.852-0.613 8.814l-0.058 35.052zM608.516 377.809h-92.43v127.715h92.43v-127.715zM888.288 377.809h-92.459v300.464h92.459v-300.464zM319.814 758.65c-0.817 0-1.576-0.233-2.364-0.233-2.393 0.058-4.728 0.233-7.15 0.233h9.514zM313.977 393.307c0.35 0 0.613 0.058 0.905 0.058 0.467 0 0.788-0.058 1.255-0.058h-2.16zM448.317 527.881c-20.692-76.028-82.828-132.239-133.436-134.516-55.511 1.197-110.175 58.4-131.334 134.866-0.409-0.117-0.613-0.467-0.934-0.525-9.894-1.693-20.080 10.215-22.823 26.442-2.802 16.315 3.006 30.849 12.812 32.513 0.671 0.117 1.43-0.35 2.16-0.438-4.378 117.822 65.054 171.815 142.688 172.077 75.24-1.868 135.012-46.23 137.901-172.048 0.613 0 1.197 0.409 1.839 0.35 9.865-1.722 15.585-16.256 12.842-32.542-2.598-15.497-12.141-26.763-21.714-26.179zM1024 246.65v609.246h-948.526v-529.015c-47.018-31.17-75.474-79.443-75.474-151.939h388.166l-100.923-177.068 50.724-28.894 117.355 206.108h174.5c0 0.175-0.029 0.409-0.029 0.584h13.951l117.763-206.574 50.724 28.894-101.303 177.681h130.663v58.371h-219.416c-1.255 4.378-2.627 8.668-4.174 12.783l405.999-0.175zM348.97 233.896l-11.12 89.483 17.424 14.155h-80.698l17.453-14.155-11.149-89.483h-0.204l-70.22 137.668c-27.493-3.707-53.088-9.339-76.553-17.161v443.122h831.785v-492.504h-384.518c-37.562 37.357-94.356 57.466-161.716 66.484l-70.279-137.668-0.204 0.058zM651.886 868.679h-204.298v58.371h204.298v-58.371z" />
<glyph unicode="&#xe90a;" glyph-name="ini-terminalreport" d="M599.43 599.269h242.76v-180.776h-242.76v180.776zM154.038 55.194h835.253c19.17 0 34.709 15.543 34.709 34.713v716.183c0 19.17-15.543 34.713-34.709 34.713h-835.253c-19.17 0-34.709-15.543-34.709-34.713v-716.179c-0.003-19.173 15.539-34.716 34.709-34.716zM543.892 627.038c0 15.336 12.433 27.772 27.769 27.772h298.305c15.336 0 27.772-12.433 27.772-27.772v-236.313c0-15.332-12.433-27.769-27.772-27.769h-298.305c-15.332 0-27.769 12.433-27.769 27.769v236.313zM273.356 654.807h178.986c15.332 0 27.769-12.433 27.769-27.772 0-15.336-12.436-27.769-27.769-27.769h-178.986c-15.336 0-27.772 12.429-27.772 27.769s12.436 27.772 27.772 27.772zM273.356 535.443h178.986c15.332 0 27.769-12.433 27.769-27.772 0-15.332-12.436-27.769-27.769-27.769h-178.986c-15.336 0-27.772 12.433-27.772 27.769 0 15.339 12.436 27.772 27.772 27.772zM273.356 416.094h178.986c15.332 0 27.769-12.433 27.769-27.769s-12.436-27.772-27.769-27.772h-178.986c-15.336 0-27.772 12.433-27.772 27.772 0 15.336 12.436 27.769 27.772 27.769zM273.356 237.042h596.606c15.336 0 27.772-12.436 27.772-27.769 0-15.336-12.433-27.772-27.772-27.772h-596.606c-15.336 0-27.772 12.433-27.772 27.772 0 15.336 12.436 27.769 27.772 27.769zM63.788 89.91v631.529h-29.079c-19.166 0-34.709-15.543-34.709-34.716v-596.816c0-19.173 15.543-34.713 34.709-34.713h36.026c-4.468 10.695-6.947 22.418-6.947 34.716z" />
<glyph unicode="&#xe90b;" glyph-name="ini-tabulationsheetreport" d="M215.319 951.849h-161.642c-29.766 0-53.678-23.844-53.678-53.588v-161.687c0-29.743 23.912-54.106 53.678-54.106h161.664c29.766 0 54.016 24.362 54.016 54.106v161.687c0 29.743-24.272 53.588-54.038 53.588zM220.723 737.475c0-3.535-2.86-6.395-6.417-6.395h-161.349c-3.535 0-6.395 2.86-6.395 6.395v161.394c0 3.535 2.86 6.395 6.395 6.395h161.371c3.558 0 6.417-2.86 6.417-6.395l-0.023-161.394zM83.016 868.811h103.303v-103.28h-103.303v103.28zM215.319 530.577h-161.642c-29.766 0-53.678-23.732-53.678-53.475v-161.709c0-29.721 23.912-54.218 53.678-54.218h161.664c29.766 0 54.016 24.497 54.016 54.218v161.709c0 29.743-24.272 53.475-54.038 53.475zM220.723 315.505c0-3.558-2.522-5.719-6.057-5.719h-161.236c-3.535 0-6.867 2.162-6.867 5.719v161.281c0 3.535 3.31 7.205 6.867 7.205h161.259c3.512 0 6.057-3.693 6.057-7.205l-0.023-161.281zM83.016 447.538h103.303v-103.303h-103.303v103.303zM472.631 682.469h161.687c29.721 0 54.286 24.362 54.286 54.106v161.687c0 29.743-24.565 53.588-54.286 53.588h-161.687c-29.766 0-53.408-23.844-53.408-53.588v-161.687c0-29.743 23.642-54.106 53.408-54.106zM465.809 898.869c0 3.535 2.86 6.395 6.395 6.395h161.394c3.512 0 6.372-2.86 6.372-6.395v-161.394c0-3.535-2.86-6.395-6.372-6.395h-161.394c-3.535 0-6.395 2.86-6.395 6.395v161.394zM500.258 868.811h105.284v-103.28h-105.284v103.28zM96.796 652.095h-35.643c-7.768 0-14.568-6.485-14.568-14.253v-35.643c0-7.768 6.8-14.928 14.568-14.928h34.022v-0.45c0-7.768 5.494-13.712 13.262-13.712h79.909v-1.689c0-7.768 6.89-14.523 14.658-14.523h35.643c7.79 0 14.5 6.732 14.5 14.523v34.539c0 7.768-6.71 13.735-14.5 13.735h-17.9v18.148c0 7.768-6.192 14.253-13.982 14.253h-19.161c-7.768 0-13.442-6.485-13.442-14.253v-18.17h-62.797v18.17c0 7.79-6.8 14.253-14.568 14.253zM324.026 799.957v-78.986c0-7.768 5.336-14.185 13.127-14.185h51.044c7.768 0 14.838 6.417 14.838 14.185v35.643c0 7.768-7.070 14.996-14.838 14.996h-17.562v109.36h2.162c7.768 0 14.050 5.989 14.050 13.757v19.139c0 7.768-6.259 13.667-14.050 13.667h-67.525c-7.79 0-13.645-5.922-13.645-13.667v-19.139c0-7.768 5.854-13.757 13.645-13.757h18.756v-50.638h-18.756c-7.79 0-13.645-6.552-13.645-14.32v-2.657c0-7.768 5.854-13.397 13.645-13.397h18.756zM362.528 635.794v34.652c0 7.768-6.304 14.072-14.072 14.072h-34.652c-7.768 0-14.072-6.304-14.072-14.072v-34.652c0-7.768 6.304-14.072 14.072-14.072h34.652c7.768 0 14.072 6.282 14.072 14.072zM424.019 623.725c-7.768 0-14.906-6.71-14.906-14.478v-13.915c12.159 10.29 25.465 20.287 38.637 28.393h-23.732zM405.466 591.325h-60.613c-7.768 0-14.725-6.169-14.725-13.96v-81.17c16.211 29.248 35.508 56.605 60.027 81.125 4.841 4.841 10.177 9.952 15.311 14.005zM1004.816 54.996l-132.551 132.529c69.664 111.566 56.357 261.432-40.799 358.611-113.007 112.985-296.849 113.007-409.834 0-113.007-112.985-112.782-296.647 0.203-409.654 97.179-97.134 246.211-111.296 358.791-40.596l132.551-132.574c25.42-25.443 66.444-25.646 91.865-0.225 25.42 25.488 25.195 66.444-0.225 91.91zM776.28 191.6c-82.543-82.543-216.805-82.543-299.326 0-82.566 82.543-82.566 216.851 0 299.349 82.543 82.521 216.783 82.521 299.326 0 82.498-82.521 82.498-216.805 0-299.349z" />
<glyph unicode="&#xe90c;" glyph-name="ini-admitcardreport" d="M801.435 668.705h-754.579c-25.836 0-46.856-21.019-46.856-46.856v-523.407c0-25.836 21.019-46.856 46.856-46.856h586.719c22.88 0 51.944 14.031 66.172 31.942l124.14 156.264c13.684 17.227 24.402 47.95 24.402 69.944v312.113c0.002 25.836-21.017 46.856-46.853 46.856zM559.247 237.069h-270.203v65.598h270.203v-65.598zM525.337 384.789l-101.204 56.227-101.192-56.227-117.125 65.078 31.862 57.34 85.263-47.376 101.19 56.227 101.206-56.227 85.275 47.378 31.857-57.344-117.132-65.076zM781.587 287.376l-133.173-168.838c-7.98-10.116-14.514-7.853-14.521 5.032l-0.082 158.879c-0.007 12.885 10.531 23.421 23.416 23.411l115.443-0.077c12.883-0.007 16.896-8.291 8.917-18.407zM977.144 844.414h-754.579c-25.836 0-46.856-21.019-46.856-46.856v-11.714c0-25.836 21.019-46.856 46.856-46.856h672.579c12.918 0 23.428-10.51 23.428-23.428v-333.33c0-27.392 16.777-28.781 20.141-28.781 7.687 0 15.294 4.667 22.603 13.869l38.279 48.182c13.684 17.227 24.402 47.95 24.402 69.944v312.113c0.002 25.836-21.017 46.856-46.853 46.856z" />
<glyph unicode="&#xe90d;" glyph-name="ini-sociallink" d="M379.928 272.841c-27.227 27.876-63.629 46.511-105.21 54.465 58.758 19.684 101.231 75.211 101.231 140.509 0 81.699-66.47 148.173-148.173 148.173s-148.166-66.474-148.166-148.173c0-65.298 42.474-120.825 101.228-140.509-41.577-7.954-77.976-26.586-105.207-54.458-35.968-36.819-54.251-87.643-52.869-146.977 0.434-18.715 15.732-33.658 34.451-33.658h341.137c18.718 0 34.013 14.943 34.447 33.658 1.386 59.333-16.898 110.158-52.869 146.97zM948.369 479.596c-27.227 27.872-63.629 46.508-105.21 54.465 58.758 19.68 101.231 75.207 101.231 140.505 0 81.699-66.47 148.173-148.173 148.173s-148.173-66.47-148.173-148.173c0-65.295 42.474-120.825 101.228-140.505-41.577-7.958-77.976-26.59-105.207-54.462-35.971-36.819-54.251-87.643-52.869-146.977 0.434-18.711 15.732-33.658 34.447-33.658h341.137c18.718 0 34.016 14.946 34.451 33.658 1.389 59.333-16.894 110.158-52.862 146.973zM167.122 648.738c6.047-4.279 13.002-6.341 19.887-6.341 10.799 0 21.435 5.065 28.151 14.55 67.622 95.487 177.362 152.773 294.016 153.683l-21.542-21.538c-13.457-13.457-13.457-35.275 0-48.735 6.73-6.727 15.55-10.092 24.366-10.092s17.636 3.365 24.366 10.092l80.406 80.406c13.457 13.457 13.457 35.275 0 48.735l-80.403 80.413c-13.46 13.45-35.271 13.45-48.735 0-13.457-13.457-13.457-35.278 0-48.735l21.621-21.628c-138.995-0.883-269.805-69.046-350.342-182.772-10.995-15.529-7.32-37.036 8.209-48.038zM858.298 247.972c-15.612 10.888-37.092 7.061-47.976-8.547-62.561-89.678-161.833-146.101-269.664-154.652l22.128 22.128c13.457 13.457 13.457 35.278 0 48.735-13.457 13.453-35.271 13.453-48.731 0l-80.406-80.403c-13.453-13.457-13.453-35.275 0-48.735l80.406-80.403c6.73-6.727 15.546-10.095 24.366-10.095s17.636 3.369 24.362 10.095c13.457 13.453 13.457 35.275 0 48.731l-20.928 20.932c129.91 9.009 249.773 76.421 324.984 184.241 10.888 15.605 7.065 37.088-8.54 47.973z" />
<glyph unicode="&#xe90e;" glyph-name="ini-transactionreport" d="M842.432 794.575l-141.718 141.718c-31.609 31.609-82.895 31.609-114.505 0l-141.718-141.718h397.94zM503.314 927.292h-203.261c-44.797 0-81.221-36.424-81.221-81.011v-51.705h151.556l132.926 132.717zM522.782-35.426h196.563c43.122 0 78.29 35.168 78.29 78.29v52.752h-143.811l-131.042-131.042zM179.686 95.825l136.903-136.903c30.562-30.562 80.174-30.562 110.737 0l136.903 136.903h-384.543zM517.548 622.714c-97.967 0-177.514-79.546-177.514-177.514s79.546-177.514 177.514-177.514 177.514 79.546 177.514 177.514-79.546 177.514-177.514 177.514zM568.416 375.074c-7.745-9.42-17.793-15.7-29.516-19.049-5.233-1.465-7.327-4.187-7.117-9.42s0-10.467 0-15.7c0-4.605-2.303-7.117-6.908-7.327-5.652-0.209-11.304-0.209-16.956 0-5.024 0-7.327 2.931-7.327 7.745 0 3.768 0 7.745-0.209 11.513 0 8.373-0.419 8.792-8.583 10.048-10.467 1.675-20.515 3.977-30.144 8.583-7.536 3.559-8.164 5.443-6.071 13.397 1.675 5.861 3.14 11.723 5.024 17.375 2.093 6.699 3.977 7.536 10.048 4.396 10.467-5.443 21.771-8.583 33.493-10.048 7.536-1.047 14.863-0.209 21.98 2.931 12.979 5.652 15.072 20.933 3.977 29.934-3.768 3.14-7.955 5.443-12.56 7.327-11.513 5.024-23.445 8.792-34.121 15.281-17.584 10.467-28.678 24.911-27.422 46.262 1.465 24.073 15.072 39.145 37.261 47.309 9.211 3.349 9.211 3.14 9.211 12.769 0 3.14 0 6.489 0 9.629 0.209 7.117 1.465 8.373 8.583 8.583 2.303 0 4.396 0 6.699 0 15.281 0 15.281 0 15.281-15.281 0-10.885 0-10.885 10.885-12.56 8.164-1.256 16.119-3.768 23.655-7.117 4.187-1.884 5.861-4.815 4.396-9.211-1.884-6.489-3.768-13.188-5.861-19.677-2.093-6.071-3.977-7.117-9.839-4.187-11.932 5.861-24.492 8.164-37.47 7.536-3.559-0.209-6.908-0.628-10.048-2.093-11.304-5.024-13.188-17.584-3.559-25.329 4.815-3.977 10.467-6.699 16.328-9.211 10.048-4.187 20.096-8.164 29.725-13.397 30.351-16.747 38.724-54.845 17.165-81.011zM824.848 436.199c0-27.169-22.024-49.193-49.193-49.193s-49.193 22.024-49.193 49.193c0 27.169 22.024 49.193 49.193 49.193s49.193-22.024 49.193-49.193zM308.426 436.199c0-27.169-22.024-49.193-49.193-49.193s-49.193 22.024-49.193 49.193c0 27.169 22.024 49.193 49.193 49.193s49.193-22.024 49.193-49.193zM898.323 734.706h-772.854c-44.588 0-81.011-36.424-81.011-81.011v-416.989c0-44.588 36.424-81.011 81.011-81.011h773.063c44.588 0 81.011 36.424 81.011 81.011v416.989c-0.211 44.588-36.424 81.011-81.221 81.011zM910.253 314.368c-6.489 1.675-13.188 2.512-20.305 2.512-45.216 0-82.058-36.633-82.058-82.058 0-3.349 0.209-6.908 0.628-10.257h-599.946c0.837 4.815 1.465 9.839 1.465 15.072 0 45.216-36.633 82.058-82.058 82.058-5.024 0-9.629-0.419-14.444-1.256v249.105c4.605-0.837 9.42-1.256 14.444-1.256 45.216 0 82.058 36.633 82.058 82.058 0 5.233-0.419 10.257-1.465 15.072h601.83c-1.675-6.489-2.512-13.188-2.512-20.096 0-45.216 36.633-82.058 82.058-82.058 6.908 0 13.816 0.837 20.305 2.512v-251.408z" />
<glyph unicode="&#xe90f;" glyph-name="ini-duefeesreport" d="M528 207.6v-80.2c10.6 2 19.4 6.6 26 14.4 6.6 7.6 10 16.6 10 26.8 0 9.2-2.8 17.2-8.4 23.8-5.6 6.4-14.8 11.6-27.6 15.2zM469.6 310.4c0-7.2 2.2-14 6.8-20.2s11.4-11.2 20.6-15.2v71.2c-8.4-2.8-15-7.4-20-14-5-6.4-7.4-13.8-7.4-21.8zM592.8 113.2c-15.6-17-37.2-27.4-65-31.2v-38.4h-31v37.4c-24.6 2.8-44.6 11.8-59.8 26.6-15.4 14.8-25.2 35.8-29.4 62.8l55.6 5.8c2.2-11 6.6-20.4 12.8-28.4s13.2-13.8 20.8-17.2v86.2c-27.8 7.6-48.2 19.4-61.2 34.8-13 15.6-19.6 34.4-19.6 56.8 0 22.6 7.4 41.4 22 56.8 14.8 15.4 34.2 24.2 58.8 26.4v20.4h31.2v-20.4c22.6-2.6 40.6-10 54-22.4 13.4-12.2 21.8-28.8 25.6-49.2l-54-6.8c-3.2 16.2-11.8 27.2-25.6 33v-80.4c34.2-9 57.4-20.4 69.8-34.6s18.6-32.4 18.6-54.6c-0.2-25.6-8-46.4-23.6-63.4zM961.2 496.8h-898.4c-22.6 0-40.8-18.2-40.8-40.8v-457.2c0-22.6 18.2-40.8 40.8-40.8h898.4c22.6 0 40.8 18.2 40.8 40.8v457.2c0 22.6-18.2 40.8-40.8 40.8zM854 642h-684c-22.6 0-40.8-18.2-40.8-40.8s18.2-40.8 40.8-40.8h684c22.6 0 40.8 18.2 40.8 40.8 0 22.4-18.2 40.8-40.8 40.8zM292.6 708.4h439c22.6 0 40.8 18.2 40.8 40.8s-18.2 40.8-40.8 40.8h-439c-22.6 0-40.8-18.2-40.8-40.8-0.2-22.6 18.2-40.8 40.8-40.8zM439 856.4h146.2c22.6 0 40.8 18.2 40.8 40.8s-18.2 40.8-40.8 40.8h-146.2c-22.6 0-40.8-18.2-40.8-40.8s18.2-40.8 40.8-40.8z" />
<glyph unicode="&#xe910;" glyph-name="ini-feesreport" d="M772.66 397.854c14.158 0 25.635-11.489 25.635-25.66 0-14.158-11.478-25.637-25.635-25.637-14.171 0-25.66 11.479-25.66 25.637 0 14.171 11.489 25.66 25.66 25.66zM383.897 805.353c0 1.119 0 3.107 0.058 5.573h-195.875v-281.437h195.954l-0.136 275.864zM980.816 201.398v420.75c0 30.864-16.853 57.812-41.794 72.272v192.432h-468.125v-181.118h-62.761v-83.596h489.090l0.046-420.738h-769.097v236.85h367.801v167.176h-87.84v-41.796h18.187v-72.449h-273.074v72.451h14.346v41.796h-39.42v16.722h39.42v83.596h-39.42c-46.091 0-83.596-37.507-83.596-83.597v-420.75h-44.58v-192.249h1023.998v192.249h-43.182zM855.432 705.734h-300.934v97.528h300.932v-97.528zM530.807 50.931c-30.013 0-54.337 24.33-54.337 54.331 0 30.011 24.335 54.329 54.337 54.329 30.009 0 54.329-24.316 54.329-54.329 0.012-29.999-24.318-54.331-54.329-54.331zM852.637 488.751c0 22.505-18.251 40.738-40.75 40.738h-225.705c-22.499 0-40.738-18.245-40.738-40.738 0-22.507 18.239-40.75 40.738-40.75h225.703c22.511 0 40.752 18.243 40.752 40.75zM608.602 397.854c14.169 0 25.648-11.489 25.648-25.66 0-14.158-11.479-25.637-25.648-25.637-14.159 0-25.648 11.479-25.648 25.637 0 14.171 11.489 25.66 25.648 25.66zM608.602 313.216c14.169 0 25.648-11.478 25.648-25.648 0-14.169-11.479-25.648-25.648-25.648-14.159 0-25.648 11.479-25.648 25.648 0 14.171 11.489 25.648 25.648 25.648zM690.681 397.854c14.159 0 25.637-11.489 25.637-25.66 0-14.158-11.478-25.637-25.637-25.637-14.171 0-25.66 11.479-25.66 25.637 0.002 14.171 11.489 25.66 25.66 25.66zM772.66 313.216c14.158 0 25.635-11.478 25.635-25.648 0-14.169-11.478-25.648-25.635-25.648-14.171 0-25.66 11.479-25.66 25.648 0 14.171 11.489 25.648 25.66 25.648zM690.681 313.216c14.159 0 25.637-11.478 25.637-25.648 0-14.169-11.478-25.648-25.637-25.648-14.171 0-25.66 11.479-25.66 25.648 0.002 14.171 11.489 25.648 25.66 25.648z" />
<glyph unicode="&#xe911;" glyph-name="ini-balancefeesreport" d="M721.839 293.695c0-18.623-15.105-33.771-33.754-33.771-18.632 0-33.783 15.148-33.783 33.771 0 18.646 15.148 33.763 33.783 33.763 18.652 0 33.754-15.117 33.754-33.763zM914.755 709.831c13.441 0 24.325 10.893 24.325 24.317 0 13.418-10.884 24.317-24.325 24.317h-130.289l15.707-48.634h114.582zM1024 320.589v-62.28c0-32.247-21.221-59.332-50.28-68.909v-212.917c0-17.903-14.526-32.42-32.423-32.42h-908.845c-17.894 0-32.42 14.518-32.42 32.42v646.536c0 1.973 0.243 3.888 0.587 5.769-0.37 3.469-0.619 6.984-0.619 10.537 0 53.951 43.009 119.113 96.408 119.113h39.688c-1.669-1.661-3.324-3.301-4.979-4.97-11.821-11.818-12.319-31.029-1.768-43.663h-32.941c-19.031 0-39.153-28.156-45.604-54.368h890.494c17.9 0 32.423-14.529 32.423-32.42v-233.519c29.059-9.573 50.28-36.662 50.28-68.909zM1007.787 320.589c0 31.252-25.399 56.645-56.65 56.645h-285.008c-47.826 0-86.615-38.785-86.615-86.629 0-47.823 38.785-86.626 86.615-86.626h300.214c23.834 6.683 41.456 28.37 41.456 54.33v62.28h-0.012zM795.723 678.247l-43.851 113.168-292.076-113.168h335.927zM159.31 678.247h82.934l481.243 186.459-27.485 71.026c-5.083 13.062-19.806 19.543-32.866 14.486l-506.020-196.038c-13.083-5.072-19.566-19.78-14.509-32.843l16.702-43.090z" />
<glyph unicode="&#xe912;" glyph-name="ini-examschedulereport" d="M288.278 544h-95.882c-19.176 0-31.961-12.8-31.961-31.999s12.784-31.999 31.961-31.999h95.882c19.176 0 31.961 12.8 31.961 31.999s-12.784 31.999-31.961 31.999zM735.729 512.001c0-19.199 12.784-31.999 31.961-31.999h127.843c19.176 0 31.961 12.8 31.961 31.999s-12.784 31.999-31.961 31.999h-127.843c-19.176 0-31.961-12.8-31.961-31.999zM671.808 544h-95.882c-19.176 0-31.961-12.8-31.961-31.999s12.784-31.999 31.961-31.999h95.882c19.176 0 31.961 12.8 31.961 31.999s-12.784 31.999-31.961 31.999zM480.043 544h-95.882c-19.176 0-31.961-12.8-31.961-31.999s12.784-31.999 31.961-31.999h95.882c19.176 0 31.961 12.8 31.961 31.999s-12.784 31.999-31.961 31.999zM288.278 383.999h-95.882c-19.176 0-31.961-12.8-31.961-31.999s12.784-31.999 31.961-31.999h95.882c19.176 0 31.961 12.8 31.961 31.999s-12.784 31.999-31.961 31.999zM895.533 383.999h-127.843c-19.176 0-31.961-12.8-31.961-31.999s12.784-31.999 31.961-31.999h127.843c19.176 0 31.961 12.8 31.961 31.999s-12.784 31.999-31.961 31.999zM924.298 896.002h-60.725v31.999c0 19.199-12.784 31.999-31.961 31.999s-31.961-12.8-31.961-31.999v-31.999h-127.843v31.999c0 19.199-12.784 31.999-31.961 31.999s-31.961-12.8-31.961-31.999v-31.999h-127.843v31.999c0 19.199-12.784 31.999-31.961 31.999s-31.961-12.8-31.961-31.999v-31.999h-127.843v31.999c0 19.199-12.784 31.999-31.961 31.999s-31.961-12.8-31.961-31.999v-31.999h-92.686c-60.725 0-131.039-51.198-131.039-115.203v-668.802c0-67.201 67.118-112 131.039-112h220.529c3.196 0 3.196 0 6.392 0 44.745-41.602 105.471-63.998 169.392-63.998s124.647 25.599 169.392 63.998c3.196 0 3.196 0 6.392 0h220.529c60.725 0 99.078 44.798 99.078 112v668.802c0 67.201-38.353 115.203-99.078 115.203zM527.984-0.002c-105.471 0-191.765 86.401-191.765 192s86.294 192 191.765 192 191.765-86.401 191.765-192-86.294-192-191.765-192zM959.454 704.002h-63.922c-19.176 0-31.961-12.8-31.961-31.999s12.784-31.999 31.961-31.999h63.922v-527.999c0-48.002-25.569-48.002-35.157-48.002h-175.784c15.98 28.803 28.765 60.802 31.961 95.996h115.059c19.176 0 31.961 12.8 31.961 31.999s-12.784 31.999-31.961 31.999h-115.059c-15.98 124.799-124.647 223.999-252.49 223.999s-236.51-95.996-252.49-223.999h-83.098c-19.176 0-31.961-12.8-31.961-31.999s12.784-31.999 31.961-31.999h83.098c3.196-35.202 15.98-67.201 31.961-95.996h-175.784c-28.765 0-67.118 22.403-67.118 48.002v527.992h703.137c19.176 0 31.961 12.8 31.961 31.999s-12.784 31.999-31.961 31.999h-703.137v76.805c0 22.403 35.157 51.198 67.118 51.198h92.686v-31.999c0-19.199 12.784-31.999 31.961-31.999s31.961 12.8 31.961 31.999v31.999h127.843v-31.999c0-19.199 12.784-31.999 31.961-31.999s31.961 12.8 31.961 31.999v31.999h127.843v-31.999c0-19.199 12.784-31.999 31.961-31.999s31.961 12.8 31.961 31.999v31.999h127.843v-31.999c0-19.199 12.784-31.999 31.961-31.999s31.961 12.8 31.961 31.999v31.999h60.725c31.961 0 35.157-31.999 35.157-51.198v-76.797zM601.494 278.399l-105.471-105.6-41.549 41.602c-12.784 12.8-31.961 12.8-44.745 0s-12.784-31.999 0-44.798l63.922-63.998c3.196-3.204 3.196-3.204 6.392-3.204l3.196-3.204c3.196 0 6.392-3.204 12.784-3.204 3.196 0 9.588 0 12.784 3.204l3.196 3.204c3.196 0 3.196 3.204 6.392 3.204l127.843 128.003c12.784 12.8 12.784 31.999 0 44.798-12.784 12.792-31.961 12.792-44.745-0.008z" />
<glyph unicode="&#xe913;" glyph-name="ini-routinereport" d="M802.816 413.668c-122.177 0-221.244-99.099-221.244-221.246 0-122.115 99.067-221.154 221.244-221.154 122.117 0 221.184 99.037 221.184 221.154 0 122.149-99.067 221.246-221.184 221.246zM817.011 28.915v19.1c0 7.901-6.372 14.286-14.195 14.286-7.901 0-14.257-6.402-14.257-14.286v-19.1c-79.211 6.81-142.487 70.1-149.298 149.298h19.16c7.826 0 14.226 6.373 14.226 14.195 0 7.961-6.4 14.257-14.226 14.257h-19.16c6.81 79.228 70.1 142.456 149.298 149.298v-19.13c0-7.871 6.373-14.257 14.257-14.257 7.826 0 14.195 6.402 14.195 14.257v19.13c79.241-6.842 142.518-70.070 149.298-149.298h-19.16c-7.869 0-14.226-6.31-14.226-14.257 0-7.841 6.372-14.195 14.226-14.195h19.16c-6.765-79.196-70.057-142.472-149.298-149.298zM885.235 213.809h-51.319c-6.842 9.867-18.206 16.419-31.101 16.419-0.196 0-0.408-0.060-0.636-0.060l-46.763 65.834c-6.81 9.581-20.159 11.804-29.77 5.025-9.581-6.842-11.881-20.219-5.025-29.83l46.794-65.862c-1.437-4.041-2.359-8.339-2.359-12.925 0-20.855 16.874-37.729 37.757-37.729 12.895 0 24.32 6.492 31.101 16.391h51.319c11.774 0 21.355 9.517 21.355 21.323 0 11.865-9.579 21.415-21.355 21.415zM212.907 632.733c38.713 0 70.040 31.357 70.040 70.025v151.947c0 38.683-31.327 70.025-70.040 70.025-38.683 0-69.995-31.342-69.995-70.025v-151.962c0-38.653 31.311-70.010 69.995-70.010zM641.804 632.733c38.715 0 70.040 31.357 70.040 70.025v151.947c0 38.683-31.327 70.025-70.040 70.025-38.653 0-69.993-31.342-69.993-70.025v-151.962c-0.017-38.653 31.342-70.010 69.993-70.010zM307.797 438.307c0 19.991-16.163 36.185-36.201 36.185h-67.104c-19.991 0-36.23-16.193-36.23-36.185v-67.075c0-20.022 16.238-36.262 36.23-36.262h67.104c20.022 0 36.201 16.24 36.201 36.262v67.075zM497.154 438.262c0 19.991-16.208 36.17-36.155 36.17h-67.136c-19.991 0-36.171-16.178-36.171-36.17v-67.090c0-19.961 16.178-36.201 36.171-36.201h67.136c19.961 0 36.155 16.24 36.155 36.201v67.090zM583.191 474.492c-20.023 0-36.232-16.193-36.232-36.185v-67.075c0-18.114 13.499-32.402 30.814-35.11 26.544 41.347 64.137 74.824 108.648 96.465v5.721c0 19.991-16.178 36.185-36.201 36.185h-67.028zM204.507 292.672c-19.991 0-36.232-16.178-36.232-36.17v-67.104c0-19.991 16.24-36.17 36.232-36.17h67.136c19.991 0 36.155 16.178 36.155 36.17v67.104c0 19.991-16.163 36.17-36.155 36.17h-67.136zM460.922 292.641h-67.074c-19.991 0-36.17-16.21-36.17-36.201v-67.044c0-19.991 16.178-36.17 36.17-36.17h67.074c19.961 0 36.171 16.178 36.171 36.17v67.044c0 19.993-16.21 36.201-36.171 36.201zM558.748 83.928h-340.438c-58.599 0-106.287 47.686-106.287 106.225v355.576h630.727v-93.043c19.327 4.449 39.35 7.053 60.066 7.053 17.768 0 35.11-1.832 51.924-5.177v334.431h-100.882v-86.234c0-61.776-50.231-112.023-112.054-112.023-61.791 0-112.021 50.245-112.021 112.023v86.234h-204.825v-86.234c0-61.776-50.261-112.023-112.053-112.023-61.763 0-112.023 50.245-112.023 112.023v86.234h-100.882v-598.824c0-120.527 97.735-218.309 218.309-218.309h418.108c4.964 0 9.867 0.408 14.741 0.728-40.167 27.757-72.252 66.274-92.411 111.342z" />
<glyph unicode="&#xe914;" glyph-name="ini-income" d="M756.071 412.804c11.393 9.886 24.396 18.162 38.905 24.61v3.87c0 28.48 23.107 51.587 51.587 51.587h12.897v13.648c0 20.743-16.873 37.615-37.615 37.615h-179.802c-20.742 0-37.615-16.872-37.615-37.615v-211.076c0-20.742 16.873-37.615 37.615-37.615h62.549c-1.936 10.317-3.010 21.065-3.010 32.242 0 24.504 4.622 47.395 13.649 67.923 9.136 20.635 22.893 39.229 40.841 54.812zM339.829 958.872c-20.742 0-37.615-16.873-37.615-37.615v-625.814c0-20.742 16.873-37.615 37.615-37.615h179.694c20.742 0 37.615 16.873 37.615 37.615v625.814c0 20.742-16.873 37.615-37.615 37.615h-179.694zM255.033 295.335v427.526c0 20.742-16.873 37.615-37.615 37.615h-179.802c-20.742 0-37.615-16.873-37.615-37.615v-427.526c0-20.742 16.873-37.615 37.615-37.615h179.694c20.85 0 37.723 16.873 37.723 37.615zM988.641 201.296c-11.070 11.071-25.365 20.528-42.344 28.051-15.798 6.986-32.994 10.425-49.545 13.757-21.709 4.406-42.344 8.49-55.778 19.775-1.935 1.612-3.762 3.438-5.374 5.374-5.374 6.556-8.060 14.831-8.060 25.256 0 10.532 3.117 18.915 9.887 26.438 5.374 6.018 13.219 10.532 22.139 13.004 5.051 1.398 10.425 2.149 15.907 2.149 13.971 0 26.438-4.836 33.961-13.326 5.589-6.233 9.565-16.658 11.607-30.201 1.397-8.92 9.028-15.26 17.733-15.26 0.86 0 1.827 0.107 2.687 0.214l57.713 8.598c9.78 1.505 16.551 10.533 15.154 20.312v0c-4.944 35.144-19.99 63.409-44.709 83.936-12.682 10.533-28.588 18.7-46.428 23.859v27.943c0 9.887-8.060 17.948-17.948 17.948h-58.68c-9.887 0-17.948-8.060-17.948-17.948v-27.513c-19.668-5.482-36.863-14.401-50.404-26.331-28.48-24.934-42.989-57.82-42.989-97.585 0-11.285 1.289-22.032 3.762-32.242 2.472-10.102 6.125-19.669 11.070-28.695 10.101-18.379 24.61-32.994 43.204-43.419 26.331-14.724 51.801-21.172 79.959-27.513 18.593-4.191 39.12-10.318 49.652-23.215 4.944-6.018 7.416-14.938 7.416-26.331 0-14.185-3.976-25.685-12.037-34.929-7.523-8.598-18.593-14.4-31.060-16.335-3.009-0.43-6.018-0.646-9.135-0.646-17.84 0-34.283 7.523-44.064 20.097-4.514 5.804-10.747 18.27-14.509 44.386-1.29 8.92-9.027 15.369-17.733 15.369-1.075 0-2.041-0.107-3.116-0.322l-56.423-9.78c-9.028-1.612-15.476-9.781-14.832-19.023 1.936-27.835 9.35-52.017 22.032-71.899 12.789-20.096 28.48-35.036 46.643-44.386 10.317-5.265 21.28-9.564 32.779-12.682v-23.107c0-9.887 8.060-17.948 17.948-17.948h58.464c9.887 0 17.948 8.060 17.948 17.948v22.569c25.041 6.986 46.859 19.668 63.731 37.401 24.611 25.793 37.078 58.25 37.078 96.403 0 17.411-3.009 33.961-8.92 49.115-6.34 15.8-15.154 29.34-26.438 40.732z" />
<glyph unicode="&#xe915;" glyph-name="ini-ebook" d="M849.127 189.18v34.040h-27.656v29.076l-42.029 78.72h44.156v45.792l-111.075 135.761h-391.877l-101.057-159.255c-17.289-14.042-28.581-35.217-28.581-59.185 0-41.986 33.957-76.098 75.843-76.528-28.182-11.298-48.186-38.8-48.186-70.975 0-23.367 10.737-44.076 27.292-58.139-39.038-3.461-69.843-35.971-69.843-75.895 0-42.25 34.357-76.591 76.593-76.591h553.869v34.040h-35.462v85.105h35.462v14.894h42.552v34.040h-25.529v85.101h25.529zM225.046 294.13c0 15.852 8.825 29.568 21.74 36.883h507.308v-79.429h-486.495c-23.461-0.005-42.553 19.076-42.553 42.546zM737.072-29.96h-484.364c-23.463 0-42.552 19.076-42.552 42.552 0 23.456 19.089 42.552 42.552 42.552h484.367l-0.003-85.103zM789.556 104.077h-494.302c-23.46 0-42.549 19.081-42.549 42.552 0 23.458 19.089 42.556 42.549 42.556h494.303v-85.107h-0.001zM730.574 740.677c-16.014 0-45.217 2.91-45.217 7.965 0 116.719-94.626 211.359-211.348 211.359-97.646 0-179.581-66.318-203.84-156.292-75.912-25.031-130.768-96.422-130.768-180.71 0-56.466 59.138-126.028 95.49-163.455l57.687 90.902h444.147l76.561-93.579c42.834 27.36 71.315 75.194 71.315 129.779-0.003 85.071-68.967 154.031-154.026 154.031z" />
<glyph unicode="&#xe916;" glyph-name="ini-librarycardreport" d="M267.399 636.339h488.832c16.74 0 30.4 12.986 30.4 29.729v131.729c0 16.74-13.66 28.989-30.4 28.989h-122.759c-5.23 63.482-57.775 111.862-121.655 111.862s-116.424-48.379-121.655-111.862h-122.764c-16.74 0-30.030-12.249-30.030-28.989v-131.732c0-16.74 13.287-29.726 30.030-29.726zM961.094 743.983h-34.534c-27.513 0-57.126-14.176-57.126-45.302v-113.253c0-28.689-16.16-34.708-29.715-34.708-0.469 0-0.798 0.011-0.8 0.011l-0.558 0.047h-648.269c-4.598 0.304-32.765 3.411-32.765 33.32v114.583c0 32.845-29.713 45.086-49.831 45.302h-44.962c-35.064 0-62.533-27.030-62.533-61.537v-660.789c0-35.459 28.054-64.305 62.533-64.305h898.561c34.686 0 62.906 28.846 62.906 64.305v660.789c0 34.507-27.631 61.537-62.906 61.537zM277.441 485.383c55.735 0 100.921-45.205 100.921-100.945 0-55.732-45.186-100.945-100.921-100.945-55.762 0-100.94 45.211-100.94 100.945 0 55.74 45.18 100.945 100.94 100.945zM408.25 82.424c0 0-77.148-57.965-130.818-57.965s-130.818 57.965-130.818 57.965c-7.281 5.471-11.797 17.259-10.033 26.196l19.128 97.186c1.764 8.934 10.66 16.516 19.768 16.516h203.908c9.108 0 18.004-7.582 19.768-16.516l19.128-97.186c1.766-8.937-2.749-20.726-10.030-26.196zM761.79 133.999h-193.208c-22.865 0-41.402 18.537-41.402 41.402s18.537 41.402 41.402 41.402h193.208c22.865 0 41.402-18.537 41.402-41.402s-18.537-41.402-41.402-41.402zM872.194 307.886h-303.612c-22.865 0-41.402 18.537-41.402 41.402s18.537 41.402 41.402 41.402h303.612c22.865 0 41.402-18.537 41.402-41.402s-18.537-41.402-41.402-41.402z" />
<glyph unicode="&#xe917;" glyph-name="ini-leaveapplicationreport" d="M988.895 960h-953.788c-19.379 0-35.108-15.728-35.108-35.108v-953.785c0-19.374 15.728-35.108 35.108-35.108h953.788c19.371 0 35.105 15.737 35.105 35.108v953.785c0 19.379-15.737 35.108-35.105 35.108zM196.025 907.32h631.95v-295.489h-631.95v295.489zM858.712 10.603h-693.389v437.395h693.389v-437.395zM649.52 863.436h87.788v-210.668h-87.788v210.668zM795.060 339.744h-566.12v35.108h566.12v-35.108zM795.060 216.866h-566.12v35.108h566.12v-35.108zM795.060 98.373h-566.12v35.108h566.12v-35.108z" />
<glyph unicode="&#xe918;" glyph-name="ini-librarybooksreport" d="M18.015 902.697c-10.664-3.417-18.015-13.356-18.015-24.642v-436.302c0-14.6 11.907-25.884 25.781-25.884 1.76 0 3.52 0.206 5.28 0.518 40.793 8.489 102.191 13.873 170.939 13.873 78.067 0 146.711-7.040 186.469-17.601v489.211c-30.44 9.836-102.501 29.715-186.469 29.715-81.794 0-152.095-18.844-183.985-28.887zM705.291 640.852c26.091 8.076 53.114 12.217 80.136 12.217v0 0c7.455 0 15.013-0.311 22.467-0.932v225.917c0 11.285-7.351 21.225-18.014 24.642-31.786 10.043-102.191 28.887-183.985 28.887-83.969 0-156.030-19.879-186.47-29.715v-489.211c24.020 6.419 58.603 11.494 99.395 14.495 4.659 28.162 13.874 55.703 27.644 81.69 33.547 63.779 89.974 110.681 158.826 132.009zM912.986 145.533c-15.116-8.076-31.165-14.806-47.937-20.085-16.669-5.177-33.753-8.697-50.94-10.561l41.002-132.216c4.245-13.667 18.74-21.329 32.407-17.084l49.491 15.323c13.667 4.246 21.329 18.741 17.084 32.407l-41.105 132.215zM1013.209 453.865c-18.843 60.881-60.362 110.784-116.789 140.499-17.394 9.215-35.616 16.048-54.15 20.707-5.695 1.45-11.389 2.588-17.187 3.52-5.695 0.932-11.389 1.76-17.188 2.278-7.455 0.725-15.013 1.139-22.467 1.139-23.709 0-47.627-3.624-70.923-10.768-60.88-18.844-110.784-60.362-140.498-116.789-10.976-20.914-18.741-42.863-23.192-65.332-1.139-5.695-2.071-11.494-2.795-17.291-0.725-5.695-1.139-11.493-1.448-17.291-1.242-27.333 2.174-55.081 10.56-82.001 18.844-60.88 60.363-110.784 116.79-140.498 34.788-18.326 72.682-27.644 110.99-27.644 6.626 0 13.254 0.311 19.879 0.828 17.188 1.45 34.272 4.763 51.147 9.94s32.821 12.218 47.834 20.707c39.137 22.26 71.233 55.289 92.769 96.083 29.508 56.426 35.513 121.032 16.669 181.912zM923.029 310.571c-11.285-21.33-26.712-38.931-44.935-52.493-26.92-19.983-59.74-30.75-93.183-30.75-1.864 0-3.727 0-5.695 0.105-22.571 0.828-45.349 6.625-66.677 17.807-56.842 29.922-87.488 90.181-82.726 150.44 0.414 5.695 1.242 11.389 2.278 17.084 1.139 5.695 2.485 11.389 4.349 17.084 2.795 8.801 6.316 17.497 10.767 25.884 27.851 52.907 82.106 83.242 138.221 83.242 7.455 0 15.013-0.518 22.467-1.657 5.695-0.828 11.494-2.071 17.188-3.52 5.798-1.553 11.493-3.417 17.187-5.59 5.28-2.071 10.457-4.453 15.53-7.144 75.995-39.965 105.296-134.495 65.227-210.491z" />
<glyph unicode="&#xe919;" glyph-name="ini-librarybookissuereport" d="M948.008 326.275c-59.455-3.664-137.632-63.063-213.029-97.211-92.464-41.816-236.336-8.209-236.353-8.209 22.241 10.423 112.429 31.903 130.584 39.902 96.546 42.461 88.32 131.019 42.352 130.276-60.715-1.024-96.423-15.936-217.625-32.467-91.88-12.482-200.547-7.918-252.665-27.815-73.573-28.113-192.034-217.193-192.034-217.193l183.191-177.551c0 0 113.45 111.711 168.621 111.711 125.784 0 130.854 1.731 247.609 8.035 49.686 2.654 60.005 4.694 88.449 14.272 151.386 51.175 313.907 187.467 316.898 203.871 6.882 37.961-34.644 54.332-65.998 52.379zM192.463 454.856c5.047-3.235 11.36-3.74 16.764-1.299 98.061 44.046 197.477 44.046 295.516 0 4.598-2.026 9.879-2.026 14.48 0 98.047 44.046 197.477 44.046 295.51 0 2.259-1.013 4.756-1.543 7.18-1.543 3.375 0 6.714 0.962 9.601 2.842 5.003 3.227 8.038 8.787 8.038 14.766v438.599c0 12.014-10.182 16.004-10.51 16.144-52.587 23.638-106.545 35.635-160.341 35.635-47.318 0-94.79-9.36-141.4-27.709v-215.302c0-8.468-6.823-15.33-15.327-15.33-8.434 0-15.327 6.863-15.327 15.33v215.302c-46.563 18.349-94.029 27.709-141.358 27.709-53.774 0-107.755-11.997-160.378-35.635-0.317-0.14-10.493-5.362-10.493-16.144v-438.599c-0.003-5.979 3.022-11.537 8.047-14.766zM219.634 552.919c44.742 17.693 90.281 26.688 135.654 26.688 51.215 0 102.775-11.461 153.111-34.089 2.253-1.010 4.904-1.010 7.168 0 50.342 22.628 101.896 34.089 153.134 34.089 45.351 0 90.893-8.995 135.621-26.688v-56.941c-45.306 17.073-91.403 25.7-137.402 25.7-51.961 0-104.057-11.018-154.949-32.832-50.864 21.817-102.96 32.832-154.949 32.832-45.988 0-92.071-8.63-137.391-25.703l0.003 56.944z" />
<glyph unicode="&#xe91a;" glyph-name="ini-onlineexamquestionreport" d="M708.607 736.548c-115.676 0-225.094-64.68-292.699-173.052l-22.712-36.399 22.712-36.399c67.605-108.352 177.023-173.052 292.699-173.052s225.111 64.697 292.699 173.052l22.694 36.399-22.694 36.399c-67.588 108.369-177.040 173.052-292.699 173.052zM649.444 538.479c22.867 0 41.435-18.534 41.435-41.418s-18.568-41.418-41.435-41.418c-22.867 0-41.401 18.534-41.401 41.418-0.003 22.867 18.534 41.418 41.401 41.418zM474.26 527.115c29.815 47.798 69.633 86.138 115.711 110.657-41.006-30.708-67.657-79.52-67.657-134.674 0-14.338 1.994-28.181 5.365-41.47-20.081 18.963-38.099 40.917-53.419 65.487zM838.742 423.028c12.895 23.83 20.237 51.1 20.237 80.070 0 79.759-55.552 146.419-130.015 163.782 87.565-7.204 164.523-60.468 214.006-139.765-27.305-43.758-63.018-79.52-104.228-104.087zM280.94 435.888v375.313h-85.968v-375.313c-39.632-16.816-67.501-56.102-67.501-101.768 0-60.917 49.567-110.484 110.484-110.484s110.484 49.567 110.484 110.484c0.003 45.683-27.87 84.951-67.498 101.768zM237.954 309.602c-13.514 0-24.518 11.004-24.518 24.518s11.004 24.518 24.518 24.518c13.514 0 24.518-11.004 24.518-24.518s-11.004-24.518-24.518-24.518zM220.763 185.226h34.387v-100.428h-34.387v100.428zM375.483 322.756h100.425v-34.387h-100.425v34.387zM0 322.756h100.442v-34.387h-100.442v34.387zM81.978 142.209l-24.345 24.311 70.973 71.077 24.345-24.311-70.973-71.077zM393.916 142.209l-70.973 71.060 24.345 24.311 70.973-71.060-24.345-24.311z" />
<glyph unicode="&#xe91b;" glyph-name="ini-productsalereport" d="M153.601 302.931v-64.048l95.15-58.399 54.132-99.417h112.060l97.060-56.034 97.063 56.034h112.052l54.132 99.417 95.15 58.399v64.048h-68.263v-26.731l-76.001-46.586-42.335-80.282h-92.068l-79.729-46.049-79.735 46.049h-92.076l-42.324 80.282-76.001 46.586v26.731zM870.399 576.001v81.114l-95.15 58.402-54.132 99.417h-112.052l-97.063 56.034-97.060-56.034h-112.060l-54.132-99.417-95.15-58.402v-81.114h68.266v43.807l76.001 46.575 42.324 80.285h92.076l79.735 46.049 79.729-46.049h92.068l42.335-80.285 76.001-46.575v-43.807zM664.117 712.533h-81.516l-70.598 40.758-70.612-40.758h-81.508l-37.017-71.132-66.865-41.284v-24.117h512v24.117l-66.867 41.284zM359.883 183.467h81.508l70.612-40.769 70.598 40.769h81.516l37.017 71.132 66.867 41.284v7.048h-512v-7.048l66.865-41.284zM153.601 319.999h870.399l-53.899 126.191 53.899 112.741h-1024l53.899-121.716-53.899-117.216z" />
<glyph unicode="&#xe91c;" glyph-name="ini-productpurchasereport" d="M942.093 588.448h-65.177c7.652-42.958-10.722-88.243-50.022-112.558-17.367-10.735-37.293-16.415-57.649-16.415-38.298 0-73.184 19.425-93.308 51.968-14.231 23.016-18.843 50.579-14.081 77.007h-299.706c4.742-26.428 0.131-53.99-14.098-77.022-20.108-32.526-54.993-51.952-93.291-51.952-20.37 0-40.295 5.68-57.672 16.415-39.291 24.315-57.672 69.6-50.011 112.558h-65.173c-45.243 0-81.905-36.663-81.905-81.905 0-45.218 36.663-81.878 81.905-81.878h9.035l60.064-365.304c6.298-38.215 39.316-66.277 78.067-66.277h565.855c38.749 0 71.767 28.062 78.061 66.277l60.045 365.3h9.060c45.239 0 81.907 36.665 81.907 81.88 0 45.243-36.673 81.905-81.907 81.905zM349.248 87.849c-2.474-0.363-4.923-0.555-7.349-0.555-23.904 0-44.857 17.504-48.541 41.865l-34.015 226.718c-4.028 26.848 14.459 51.862 41.306 55.89 26.881 3.911 51.845-14.459 55.89-41.29l34.024-226.739c4.028-26.839-14.467-51.86-41.315-55.89zM561.147 136.457c0-27.156-21.989-49.156-49.131-49.156-27.152 0-49.131 22.006-49.131 49.156v226.733c0 27.127 21.981 49.133 49.131 49.133 27.142 0 49.131-22.006 49.131-49.133v-226.733zM764.672 355.882l-34.038-226.718c-3.659-24.365-24.609-41.865-48.514-41.865-2.437 0-4.877 0.19-7.358 0.555-26.846 4.028-45.334 29.051-41.306 55.89l34.018 226.739c4.043 26.848 28.907 45.334 55.888 41.292 26.841-4.028 45.334-29.046 41.31-55.892zM214.34 503.749c12.594-7.802 26.593-11.517 40.426-11.517 25.744 0 50.915 12.932 65.423 36.431 13.382 21.643 14.534 47.241 5.714 69.155l145.914 235.826c13.186 21.324 6.592 49.254-14.732 62.465-7.439 4.596-15.691 6.807-23.829 6.807-15.199 0-30.044-7.637-38.651-21.537l-145.866-235.826c-23.535-1.89-45.935-14.31-59.317-35.947-22.356-36.12-11.169-83.516 24.918-105.858zM698.108 597.818c-8.82-21.914-7.693-47.512 5.693-69.155 14.534-23.502 39.679-36.431 65.446-36.431 13.829 0 27.811 3.715 40.426 11.517 36.087 22.342 47.25 69.739 24.901 105.858-13.347 21.637-35.768 34.057-59.282 35.947l-145.925 235.826c-8.582 13.902-23.429 21.537-38.632 21.537-8.134 0-16.386-2.211-23.838-6.807-21.315-13.211-27.857-41.141-14.723-62.465l145.933-235.826z" />
<glyph unicode="&#xe91d;" glyph-name="ini-searchpaymentfees" d="M838.093 960h-503.557c-76.333 0-138.452-62.119-138.452-138.475v-91.49h-77.797c-39.124 0-70.83-31.71-70.83-70.83v-324.594c0-39.124 31.709-70.83 70.83-70.83h77.797v-189.354c0-76.333 62.119-138.427 138.452-138.427h503.557c76.331 0 138.45 62.094 138.45 138.427v747.098c0 76.356-62.119 138.475-138.45 138.475zM259.903 407.783c0 15.534 12.418 27.553 27.956 27.553 7.744 0 13.175-2.714 17.070-5.406 20.614-15.159 43.090-24.484 69.508-24.484 24.46 0 39.24 9.705 39.24 25.617v0.801c0 15.136-9.325 22.879-54.777 34.543-54.729 13.978-90.075 29.137-90.075 83.133v0.755c0 42.049 28.921 71.752 71.8 79.659v20.257c0 14.286 11.568 25.853 25.876 25.853 14.284 0 25.853-11.568 25.853-25.853v-20.47c21.32-3.495 40.704-10.693 57.797-21.603 6.636-3.87 13.243-12.042 13.243-23.681 0-15.514-12.417-27.601-27.979-27.601-5.855 0-10.483 1.559-15.134 4.273-19.832 11.664-38.462 18.275-57.135 18.275-22.903 0-34.941-10.483-34.941-23.681v-0.801c0-17.848 11.639-23.681 58.647-35.699 55.128-14.376 86.223-34.188 86.223-81.55v-0.801c0-47.907-32.512-77.039-80.745-83.036v-19.242c0-14.284-11.568-25.876-25.853-25.876-14.309 0-25.876 11.567-25.876 25.876v21.368c-24.532 4.651-48.424 14.165-69.461 29.251-6.586 4.718-11.237 13.263-11.237 22.57zM586.312-20.365c-26.207 0-47.455 21.225-47.455 47.455 0 26.207 21.225 47.455 47.455 47.455 26.207 0 47.455-21.225 47.455-47.455 0.003-26.231-21.248-47.455-47.455-47.455zM858.489 129.631h-544.376v134.155h170.157l72.553-78.528c13.672-14.826 32.652-22.784 52.036-22.784 8.667 0 17.401 1.581 25.781 4.864 27.154 10.626 45.026 36.834 45.026 65.966v425.904c0 39.123-31.71 70.83-70.83 70.83h-294.724v91.487c0 11.261 9.162 20.421 20.398 20.421h503.557c11.261 0 20.398-9.161 20.398-20.421v-691.899l0.023 0.005z" />
<glyph unicode="&#xe91e;" glyph-name="ini-salaryreport" d="M890.325 521.278c-3.072 51.098-14.229 146.011-35.116 192.77-22.366 50.068-53.985 94.034-93.716 131.703-48.415 45.905-104.134 78.354-167.066 97.109-165.083 49.198-346.137-9.931-450.755-146.365-43.573-56.825-70.512-120.91-80.787-191.928-9.828-67.926-3.672-134.362 19.202-198.994 25.992-73.443 69.564-134.747 129.692-184.332l-0.562-235.228c-0.067-27.603 22.291-50.013 49.893-50.013h338.034c27.555 0 49.893 22.338 49.893 49.893v76.352c2.306 0.020 150.366 0 150.366 0 20.418 0 38.501 13.174 44.758 32.609 6.284 19.511 14.060 48.284 19.469 68.965 4.361 16.665 6.449 33.842 6.203 51.070l-0.967 67.093c-0.009 3.723 0.784 5.837 4.685 7.269 11.26 4.134 47.541 16.998 73.88 26.311 15.342 5.427 22.549 22.983 15.444 37.624-35.463 73.048-72.553 168.093-72.553 168.093zM502.070 389.626v-41.062c0-13.275-10.759-24.033-24.033-24.033h-20.714c-13.273 0-24.032 10.758-24.032 24.033v37.376c-28.622 3.515-62.991 14.010-91.358 32.825-10.349 6.865-13.329 21.084-6.651 31.551l21.382 33.518c6.75 10.581 20.773 13.869 31.435 7.246 24.582-15.271 45.327-21.627 66.074-21.627 30.703 0 42.987 10.439 42.987 34.388 0 49.127-158.433 55.882-158.433 163.347 0 62.021 35.002 105.008 94.569 117.904v40.846c0 12.713 10.306 23.019 23.018 23.019h22.74c12.713 0 23.018-10.306 23.018-23.019v-39.617c30.124-4.781 54.663-17.753 75.647-35.437 9.86-8.31 11.106-23.036 2.657-32.777l-23.178-26.725c-7.744-8.93-21.030-10.719-30.702-3.928-15.748 11.054-30.716 16.58-47.756 16.58-26.404 0-39.3-7.369-39.3-31.933 0-46.67 158.433-49.127 158.433-160.89-0.004-59.563-31.322-106.233-95.801-121.585z" />
<glyph unicode="&#xe91f;" glyph-name="ini-fmenu" d="M218.969 950.34h-170.667c-26.634 0-48.302-21.668-48.302-48.302v-170.667c0-26.634 21.668-48.302 48.302-48.302h170.667c26.634 0 48.302 21.668 48.302 48.302v170.667c0 26.634-21.668 48.302-48.302 48.302zM595.723 950.34h-170.667c-26.634 0-48.302-21.668-48.302-48.302v-170.667c0-26.634 21.668-48.302 48.302-48.302h170.667c26.634 0 48.302 21.668 48.302 48.302v170.667c0 26.634-21.668 48.302-48.302 48.302zM975.698 950.34h-170.667c-26.634 0-48.302-21.668-48.302-48.302v-170.667c0-26.634 21.668-48.302 48.302-48.302h170.667c26.634 0 48.302 21.668 48.302 48.302v170.667c0 26.634-21.668 48.302-48.302 48.302zM218.969 583.245h-170.667c-26.634 0-48.302-21.668-48.302-48.302v-170.667c0-26.634 21.668-48.302 48.302-48.302h170.667c26.634 0 48.302 21.668 48.302 48.302v170.667c0 26.634-21.668 48.302-48.302 48.302zM595.723 583.245h-170.667c-26.634 0-48.302-21.668-48.302-48.302v-170.667c0-26.634 21.668-48.302 48.302-48.302h170.667c26.634 0 48.302 21.668 48.302 48.302v170.667c0 26.634-21.668 48.302-48.302 48.302zM975.698 583.245h-170.667c-26.634 0-48.302-21.668-48.302-48.302v-170.667c0-26.634 21.668-48.302 48.302-48.302h170.667c26.634 0 48.302 21.668 48.302 48.302v170.667c0 26.634-21.668 48.302-48.302 48.302zM218.969 212.931h-170.667c-26.634 0-48.302-21.668-48.302-48.302v-170.667c0-26.637 21.668-48.302 48.302-48.302h170.667c26.634 0 48.302 21.665 48.302 48.302v170.667c0 26.634-21.668 48.302-48.302 48.302zM595.723 212.931h-170.667c-26.634 0-48.302-21.668-48.302-48.302v-170.667c0-26.637 21.668-48.302 48.302-48.302h170.667c26.634 0 48.302 21.665 48.302 48.302v170.667c0 26.634-21.668 48.302-48.302 48.302zM975.698 212.931h-170.667c-26.634 0-48.302-21.668-48.302-48.302v-170.667c0-26.637 21.668-48.302 48.302-48.302h170.667c26.634 0 48.302 21.665 48.302 48.302v170.667c0 26.634-21.668 48.302-48.302 48.302z" />
<glyph unicode="&#xe920;" glyph-name="ini-leavecategory" d="M313.389 487.384h-110.839v337.583c0 18.567-15.19 33.758-33.758 33.758s-33.758-15.19-33.758-33.758v-337.583h-100.713c-18.567 0-34.322-13.503-34.322-32.070v-153.036c0-18.567 15.754-33.758 34.322-33.758h100.711v-196.924c0-18.567 15.19-33.758 33.758-33.758s33.758 15.19 33.758 33.758v196.922h110.839c18.567 0 35.445 15.19 35.445 33.758v153.036c0.002 18.569-16.876 32.072-35.443 32.072zM275.692 335.472h-208.175v90.022h208.175v-90.022zM686.417 723.13c0 18.567-14.067 34.883-32.634 34.883h-113.652v66.954c0 18.567-15.19 33.758-33.758 33.758s-33.758-15.19-33.758-33.758v-67.517h-97.898c-18.567 0-31.508-15.754-31.508-34.883v-153.038c0-18.567 12.941-31.508 31.508-31.508h97.898v-466.989c0-18.567 15.19-33.758 33.758-33.758s33.758 15.19 33.758 33.758v466.991h113.652c18.567 0 32.634 12.941 32.634 31.508v153.6zM613.275 599.913h-208.177v90.022h208.177v-90.022zM993.056 352.352h-115.34v472.616c0 18.567-15.19 33.758-33.758 33.758s-33.758-15.19-33.758-33.758v-472.616h-96.21c-18.567 0-33.196-16.88-33.196-35.445v-153.038c0-18.567 14.628-36.009 33.196-36.009h96.21v-56.264c0-18.567 15.19-33.758 33.758-33.758s33.758 15.19 33.758 33.758v56.264h115.34c18.567 0 30.944 17.442 30.944 36.009v153.038c0 18.565-12.379 35.445-30.944 35.445zM956.483 200.439h-208.175v90.022h208.177v-90.022z" />
<glyph unicode="&#xe921;" glyph-name="ini-leaveassign" d="M218.824 781.819h-188.707c-16.635 0-30.117 13.491-30.117 30.117s13.482 30.117 30.117 30.117h188.707c16.635 0 30.117-13.491 30.117-30.117s-13.482-30.117-30.117-30.117zM326.66 673.993c-76.069 0-137.953 61.883-137.953 137.946 0 76.078 61.883 137.962 137.953 137.962s137.953-61.883 137.953-137.962c0-76.065-61.883-137.946-137.953-137.946zM326.66 889.663c-42.855 0-77.718-34.87-77.718-77.725s34.863-77.709 77.718-77.709 77.718 34.854 77.718 77.709-34.863 77.725-77.718 77.725zM993.883 781.819h-450.135c-16.635 0-30.117 13.491-30.117 30.117s13.482 30.117 30.117 30.117h450.132c16.635 0 30.117-13.491 30.117-30.117s-13.48-30.117-30.115-30.117zM731.035 310.054c-76.072 0-137.953 61.883-137.953 137.946s61.883 137.946 137.953 137.946 137.953-61.883 137.953-137.946-61.881-137.946-137.953-137.946zM731.035 525.709c-42.855 0-77.718-34.854-77.718-77.709s34.863-77.709 77.718-77.709 77.718 34.854 77.718 77.709-34.863 77.709-77.718 77.709zM513.954 417.883h-483.836c-16.635 0-30.117 13.491-30.117 30.117s13.482 30.117 30.117 30.117h483.836c16.635 0 30.117-13.491 30.117-30.117s-13.482-30.117-30.117-30.117zM993.883 417.883h-155.012c-16.635 0-30.117 13.491-30.117 30.117s13.482 30.117 30.117 30.117h155.012c16.635 0 30.117-13.491 30.117-30.117s-13.482-30.117-30.117-30.117zM292.965-53.898c-76.069 0-137.953 61.883-137.953 137.962 0 76.063 61.883 137.946 137.953 137.946s137.953-61.883 137.953-137.946c0-76.078-61.883-137.962-137.953-137.962zM292.965 161.773c-42.855 0-77.718-34.854-77.718-77.709s34.863-77.725 77.718-77.725 77.718 34.87 77.718 77.725-34.863 77.709-77.718 77.709zM993.883 53.944h-483.836c-16.635 0-30.117 13.491-30.117 30.117s13.482 30.117 30.117 30.117h483.836c16.635 0 30.117-13.491 30.117-30.117s-13.482-30.117-30.117-30.117zM185.129 53.944h-155.012c-16.635 0-30.117 13.491-30.117 30.12 0 16.626 13.482 30.117 30.117 30.117h155.012c16.635 0 30.117-13.491 30.117-30.117 0-16.629-13.482-30.12-30.117-30.12z" />
<glyph unicode="&#xe922;" glyph-name="ini-leaveapplication" d="M39.348-6.113c0-31.951 25.934-57.886 57.886-57.886h620.658c31.952 0 57.886 25.935 57.886 57.886v327.401l-41.909-91.152c-6.456-14.116-17.071-25.497-30.53-33.157l-0.438-0.219-121.133-66.201c-7.331-4.048-15.649-6.128-24.073-6.128-11.272 0-22.323 3.83-31.077 10.833-9.192 7.33-15.648 17.617-18.055 29.215l-22.432 107.784h-269.295c-15.101 0-27.356 12.255-27.356 27.356s12.256 27.356 27.356 27.356h263.495c1.094 5.909 2.954 11.707 5.471 17.179l35.125 76.38h-304.092c-15.101 0-27.356 12.255-27.356 27.356s12.256 27.356 27.356 27.356h329.26l146.629 318.535 0.219-0.109 0.875 1.97 31.733 68.828c-2.517 0.328-5.143 0.547-7.769 0.547h-413.408v-19.149c0.218-1.97 0.328-4.049 0.328-6.128v-158.557c0-44.974-36.548-81.522-81.522-81.522h-158.666c-1.641 0-3.392 0.109-5.034 0.219h-20.134v-605.993zM216.835 187.46h202.436c15.101 0 27.356-12.255 27.356-27.356s-12.256-27.356-27.356-27.356h-202.436c-15.101 0-27.356 12.255-27.356 27.356s12.256 27.356 27.356 27.356zM223.182 632.6c26.919 0 48.694 21.776 48.694 48.694v158.666c0 14.663-12.037 24.402-24.511 24.402-6.018 0-12.037-2.188-17.070-7.222l-182.959-182.959c-15.319-15.319-4.486-41.581 17.18-41.581h158.666zM952.828 914.042l-88.963 40.925c-7.441 3.392-15.21 5.034-22.87 5.034-20.68 0-40.487-11.818-49.788-31.843l-18.602-40.378 188.32-86.555 18.602 40.378c12.803 27.356 0.766 59.855-26.7 72.439zM946.262 769.71l0.875 1.641-188.43 86.555-0.765-1.641-2.299-5.034-31.843-69.157 51.977-23.964 136.344-62.591zM775.778 399.854l121.462 263.933-188.32 86.555-188.211-408.811 30.53-14.555 156.806-74.409zM512.173 309.139c0.111-1.204 0.328-2.406 0.547-3.501l6.894-33.375 21.010-101.218c1.752-8.425 9.192-13.788 17.071-13.788 2.736 0 5.581 0.657 8.316 2.188l121.133 66.202c0.219 0.109 0.328 0.218 0.547 0.327l-175.519 83.163z" />
<glyph unicode="&#xe923;" glyph-name="ini-leaveapply" d="M0 344.020v138.955c0 12.727 10.456 23.138 23.265 23.138h245.546l-106.905-185.263h-138.64c-12.808 0-23.265 10.39-23.265 23.169zM174.911 59.485l-78.362-53.091c-10.544-7.166-18.001-2.631-16.539 10.023l10.456 90.833c1.455 12.654 11.716 17.822 22.812 11.499l60.645-34.645c11.078-6.354 11.532-17.475 0.988-24.619zM193.729 110.685l-60.645 34.657c-11.087 6.333-14.994 20.534-8.545 31.578l280.819 486.789c6.371 11.061 20.732 14.939 31.812 8.523l60.645-34.566c11.094-6.416 14.901-20.629 8.545-31.65l-280.814-486.822c-6.361-11.044-20.734-14.832-31.816-8.509zM407.451 320.85l106.905 185.263h61.557l86.809-185.263h-255.271zM755.635 265.565c-24.276 12.123-145.188 289.861-176.166 362.326-31.012 72.468-124.651 265.363-94.361 280.373 21.543 10.761 98.903-141.133 156.896-232.323 57.909-91.195 179.008-326.324 193.91-353.101 14.825-26.845-14.265-49.224-30.443-55.924-16.194-6.699-25.569-13.377-49.836-1.352zM835.090 137.904l-36.533 57.457c-7.556 11.956-3.633 26.712 8.621 33.011l34.823 17.832c12.278 6.245 27.645 1.178 34.178-11.323l28.819-55.188c6.557-12.477 2.090-28.502-9.732-35.556l-24.9-14.825c-11.82-7.14-27.721-3.25-35.276 8.592zM969.545-12.804c-7.633 24.346-65.911 25.955-92.002 62.611-26.176 36.535-4.542 55.357 4.545 64.044 105.824 59.345 87.457-126.656 87.457-126.656zM1024 344.020c0-12.777-10.454-23.167-23.265-23.167h-122.911c-1.355 7.145-3.554 14.289-7.268 20.989-3.2 5.702-11.287 21.079-22.555 42.511-16.268 30.933-39.632 75.172-64.644 121.761h217.367c12.813 0 23.267-10.411 23.267-23.138v-138.955h0.010z" />
<glyph unicode="&#xe924;" glyph-name="ini-mainleaveapplication" d="M99.707-64h824.591c54.979 0 99.707 44.728 99.707 99.707v824.586c-0.005 54.979-44.733 99.707-99.712 99.707h-824.586c-54.979 0-99.707-44.728-99.707-99.707v-824.591c0-54.973 44.728-99.702 99.707-99.702zM663.173 883.2h261.12c12.646 0 22.907-10.255 22.907-22.907v-493.501h-284.027v516.408zM947.2 296.827v-261.12c0-12.646-10.255-22.907-22.907-22.907h-495.022v284.027h517.929zM437.627 373.627v148.746h148.751v-148.751h-148.751zM76.8 860.293c0 12.652 10.255 22.907 22.907 22.907h495.027v-284.027h-517.934v261.12zM76.8 530.729h284.027v-517.929h-261.12c-12.646 0-22.907 10.255-22.907 22.907v495.022z" />
<glyph unicode="&#xe925;" glyph-name="ini-productcategory" d="M616.083 205.974c-18.288 0-33.166 14.886-33.166 33.166v43.43c0 18.284 14.877 33.166 33.166 33.166h4.17c4.336 14.592 10.342 28.763 17.841 42.009l-3.672 3.667c-6.269 6.273-9.714 14.604-9.714 23.458 0 8.751 3.56 17.319 9.747 23.473l30.663 30.684c6.252 6.244 14.602 9.716 23.46 9.716 8.875 0 17.223-3.472 23.483-9.775l4.193-4.172c5.279 2.896 10.731 5.506 16.277 7.91-25.886 7.362-44.901 31.154-44.901 59.394 0 34.103 27.682 61.773 61.802 61.773 34.113 0 61.779-27.67 61.779-61.773 0-3.571-0.364-7.022-0.942-10.424h24.038c18.28 0 33.149-14.858 33.149-33.161v-6.643c11.742-3.377 23.177-7.889 34.147-13.316v404.5h-901.604v-681.93h634.444l1.99 2.001c-7.396 13.572-13.236 28.015-17.338 42.862h-3.014v-0.015zM176.204 440.327c-34.113 0-61.79 27.657-61.79 61.783 0 34.101 27.676 61.773 61.79 61.773s61.779-27.672 61.779-61.773c-0.002-34.139-27.651-61.783-61.779-61.783zM236.184 637.12c-0.496 1.402-1.225 2.709-2.348 3.842l-56.073 56.052c-4.022 4.031-10.542 4.031-14.56 0-4.014-4.025-4.014-10.516 0-14.531l45.363-45.361h-114.731c0 74.565 60.442 135.012 135.010 135.012 74.557 0 135.012-60.445 135.012-135.012h-127.673zM462.824 440.327c-34.12 0-61.777 27.657-61.777 61.783 0 34.101 27.657 61.773 61.777 61.773 34.113 0 61.773-27.672 61.773-61.773 0-34.139-27.645-61.783-61.773-61.783zM686.51 772.12c74.565 0 135.004-60.442 135.004-135.010h-124.76l34.63 51.836c3.171 4.71 1.883 11.109-2.835 14.283-4.737 3.155-11.128 1.885-14.278-2.846l-42.301-63.273h-120.473c0 74.576 60.449 135.010 135.014 135.010zM1014.856 290.568h-25.348c-4.76 25.19-14.974 49.111-29.902 69.925l17.597 17.595c1.715 1.713 2.677 4.035 2.677 6.475 0 2.425-0.963 4.75-2.677 6.46l-30.694 30.692c-3.571 3.579-9.361 3.579-12.933 0l-18.103-18.124c-20.655 14.123-44.090 23.725-68.582 28.071v25.738c0 5.042-4.1 9.132-9.136 9.132h-43.432c-5.052 0-9.125-4.1-9.125-9.132v-25.738c-24.709-4.367-48.318-14.072-69.091-28.38l-17.618 17.618c-3.56 3.587-9.361 3.587-12.94 0l-30.692-30.705c-1.711-1.702-2.68-4.025-2.68-6.465 0-2.413 0.969-4.724 2.68-6.46l17.277-17.261c-14.747-20.724-24.843-44.449-29.557-69.427h-23.069c-5.038 0-9.134-4.094-9.134-9.144v-43.411c0-5.061 4.094-9.144 9.134-9.144h22.286c4.191-25.196 13.915-49.277 28.439-70.495l-16.193-16.193c-3.571-3.587-3.571-9.361 0-12.923l30.694-30.73c1.713-1.702 4.052-2.669 6.467-2.669 2.411 0 4.758 0.967 6.475 2.669l15.67 15.686c21.392-15.317 45.954-25.669 71.85-30.267v-21.895c0-5.042 4.094-9.125 9.125-9.125h43.432c5.035 0 9.136 4.098 9.136 9.125v21.895c25.663 4.554 50.054 14.789 71.369 29.946l16.143-16.168c3.426-3.428 9.51-3.428 12.925 0l30.709 30.728c3.564 3.564 3.564 9.337 0 12.9l-16.512 16.542c14.69 21.342 24.541 45.609 28.75 70.976h24.583c5.063 0 9.146 4.094 9.146 9.144v43.411c0 5.035-4.109 9.127-9.144 9.127zM817.197 163.336c-53.234 0-96.38 43.167-96.38 96.37 0 53.234 43.146 96.37 96.38 96.37 53.205 0 96.355-43.136 96.355-96.37-0.002-53.202-43.15-96.37-96.355-96.37zM853.75 259.706c0-20.173-16.388-36.551-36.556-36.551-20.194 0-36.562 16.378-36.562 36.551 0 20.194 16.388 36.57 36.562 36.57 20.169 0.002 36.556-16.374 36.556-36.57z" />
<glyph unicode="&#xe926;" glyph-name="ini-productsupplier" d="M1003.458 675.737l-470.403 192.142c-16.133 6.589-34.215 6.539-50.31-0.142l-462.377-191.934c-12.331-5.12-20.368-17.157-20.368-30.509v-68.785c0-18.245 14.789-33.032 33.032-33.032h24.775c4.561 0 8.259-3.696 8.259-8.259v-437.679c0-41.047 33.275-74.324 74.324-74.324h21.586v397.121h700.050v-397.119h21.586c41.047 0 74.324 33.275 74.324 74.324v437.677c0 4.561 3.698 8.259 8.259 8.259h24.775c18.245 0 33.032 14.789 33.032 33.032v68.65c-0.003 13.419-8.123 25.505-20.544 30.579zM330.323 543.475h-165.162v74.324h165.16l0.002-74.324zM594.578 543.475h-165.16v74.324h165.16v-74.324zM858.838 543.475h-165.163v74.324h165.162l0.002-74.324zM373.289 188.319h-47.005v-64.847h-21.959v64.847h-47.295c-17.093 0-30.949-13.856-30.949-30.949v-103.203c0-17.093 13.857-30.948 30.949-30.948h116.257c17.093 0 30.949 13.854 30.949 30.948v103.203c0.002 17.093-13.856 30.949-30.948 30.949zM570.188 188.319h-47.005v-64.847h-21.959v64.847h-47.293c-17.093 0-30.949-13.856-30.949-30.949v-103.203c0-17.093 13.857-30.948 30.949-30.948h116.256c17.093 0 30.949 13.854 30.949 30.948v103.203c0.003 17.093-13.854 30.949-30.948 30.949zM770.746 188.319h-47.005v-64.847h-21.959v64.847h-47.293c-17.093 0-30.949-13.856-30.949-30.949v-103.203c0-17.093 13.856-30.948 30.949-30.948h116.256c17.093 0 30.949 13.854 30.949 30.948v103.203c0.003 17.093-13.856 30.949-30.948 30.949zM472.147 374.554h-47.005v-64.848h-21.959v64.848h-47.293c-17.093 0-30.949-13.857-30.949-30.949v-103.203c0-17.093 13.857-30.949 30.949-30.949h116.257c17.093 0 30.949 13.856 30.949 30.949v103.203c0.002 17.092-13.857 30.949-30.949 30.949zM673.851 374.554h-47.007v-64.848h-21.957v64.848h-47.293c-17.093 0-30.949-13.857-30.949-30.949v-103.203c0-17.093 13.857-30.949 30.949-30.949h116.257c17.093 0 30.948 13.856 30.948 30.949v103.203c0.002 17.092-13.854 30.949-30.948 30.949z" />
<glyph unicode="&#xe927;" glyph-name="ini-productwarehouse" d="M707.826 615.326c14.317 0 21.476 9.515 21.476 28.543 0 19.070-7.122 28.604-21.359 28.604-7.144 0-12.527-2.403-16.157-7.21-3.627-4.807-5.44-11.937-5.44-21.394s1.795-16.576 5.384-21.362c3.587-4.788 8.954-7.181 16.095-7.181zM801.956 651.341c2.705 1.885 4.057 4.858 4.057 8.909 0 4.016-1.383 6.871-4.139 8.57-2.759 1.701-7.037 2.548-12.824 2.548h-5.445v-22.868h5.792c5.675-0.003 9.862 0.945 12.559 2.841zM1024 719.901v75.266h-1024v-75.269h25.242v-543.802h-25.242v-75.269h1024v75.269h-25.239v543.805h25.239zM843.934 686.073h48.745v-14.707h-30.802v-18.582h28.657v-14.704h-28.657v-21.829h30.802v-14.819h-48.745v84.64zM765.661 686.073h24.66c11.499 0 20.013-2.096 25.53-6.278 5.52-4.193 8.284-10.549 8.284-19.081 0-4.975-1.373-9.403-4.113-13.289-2.74-3.875-6.62-6.919-11.635-9.115 12.738-19.028 21.038-31.32 24.892-36.877h-19.911l-20.208 32.479h-9.552v-32.479h-17.943v84.64zM677.983 676.262c6.962 7.427 16.953 11.141 29.961 11.141 13.003 0 22.951-3.741 29.843-11.23 6.89-7.491 10.332-18.256 10.332-32.308 0-14.010-3.474-24.774-10.42-32.305-6.949-7.523-16.904-11.291-29.873-11.291s-22.924 3.765-29.873 11.291c-6.949 7.528-10.426 18.333-10.426 32.426 0 14.082 3.488 24.844 10.455 32.276zM594.355 686.073h63.916v-14.934h-22.985v-69.703h-17.949v69.703h-22.983v14.934zM321.769 176.099h-193.624v376.074h193.624v-376.074zM402.123 546.851h124.091v-232.346h-124.091v232.346zM438.346 193.148c-16.042 0-29.042 13.003-29.042 29.042s13 29.042 29.042 29.042c16.042 0 29.045-13.003 29.045-29.042s-13.005-29.042-29.045-29.042zM541.609 193.148c-16.042 0-29.042 13.003-29.042 29.042s13 29.042 29.042 29.042c16.039 0 29.045-13.003 29.045-29.042s-13.005-29.042-29.045-29.042zM579.040 606.876c-5.499-4.401-13.15-6.604-22.953-6.604-9.034 0-17.025 1.704-23.971 5.095v16.675c5.715-2.55 10.543-4.345 14.504-5.384 3.955-1.044 7.576-1.565 10.853-1.565 3.939 0 6.954 0.753 9.064 2.259 2.104 1.506 3.157 3.741 3.157 6.714 0 1.658-0.465 3.135-1.391 4.43-0.927 1.29-2.283 2.537-4.078 3.731-1.797 1.196-5.453 3.108-10.971 5.731-5.175 2.436-9.053 4.767-11.635 7.007-2.588 2.238-4.652 4.842-6.193 7.817-1.546 2.97-2.318 6.441-2.318 10.418 0 7.485 2.54 13.374 7.616 17.658s12.089 6.425 21.044 6.425c4.401 0 8.596-0.518 12.592-1.565 3.995-1.042 8.174-2.508 12.535-4.396l-5.792-13.954c-4.513 1.851-8.247 3.146-11.198 3.878-2.956 0.732-5.856 1.098-8.714 1.098-3.4 0-6.003-0.79-7.819-2.374-1.813-1.584-2.721-3.645-2.721-6.19 0-1.586 0.369-2.967 1.1-4.142 0.732-1.178 1.899-2.315 3.504-3.416 1.602-1.1 5.394-3.076 11.376-5.934 7.91-3.784 13.331-7.576 16.269-11.379 2.935-3.803 4.401-8.458 4.401-13.978-0.008-7.635-2.756-13.66-8.26-18.055zM644.873 193.148c-16.039 0-29.045 13.003-29.045 29.042s13.005 29.042 29.045 29.042c16.039 0 29.045-13.003 29.045-29.042s-13.008-29.042-29.045-29.042zM711.036 314.504h-124.097v232.346h124.097v-232.346zM748.137 193.148c-16.039 0-29.042 13.003-29.042 29.042s13.003 29.042 29.042 29.042c16.045 0 29.045-13.003 29.045-29.042s-13.003-29.042-29.045-29.042zM851.404 193.148c-16.039 0-29.045 13.003-29.045 29.042s13.005 29.042 29.045 29.042c16.039 0 29.042-13.003 29.042-29.042s-13.005-29.042-29.042-29.042zM895.855 314.504h-124.094v232.346h124.094v-232.346z" />
<glyph unicode="&#xe928;" glyph-name="ini-product" d="M304.439 729.087l-90.112-248.729v-532.635l744.156 117.482 21.544 503.277-211.643 194.736zM358.779 920.876c5.655 15.219 0.835 18.355-10.817 7.076l-81.972-79.494 53.982 4.998-117.375-147.796v81.312l-158.623-153.855v-477.803l158.623-219.315-7.84 546.355 164.022 438.521zM214.327 811.325v-74.913l79.305 99.882-61.759-5.725c-9.669-0.919-17.546-9.531-17.546-19.244zM826.829 835.007c0 9.706-7.867 18.344-17.546 19.25l-53.814 4.991-73.842 88.179c-10.41 12.42-12.521 10.966-4.762-3.25l89.688-163.712 213.475-189.462-153.198 182.979v61.025zM379.113 923.352l-62.294-172.475 430.698 30.219-84.33 154.255c-7.813 14.242-27.242 25.262-43.475 24.625l-201.263-7.854c-16.223-0.62-33.83-13.498-39.336-28.771zM611.296 886.545c16.196 0.835 35.271-10.231 42.552-24.72l15.556-30.822-277.49-16.347 11.269 33.806c5.133 15.387 22.43 28.532 38.629 29.367l169.485 8.716z" />
<glyph unicode="&#xe929;" glyph-name="ini-emailsetting" d="M0 848.998v-570.598l316.963 285.3zM867.093 895.967h-814.913l407.457-366.755zM667.213 505.281c38.198 17.559 80.666 27.369 125.386 27.369 45.224 0 88.143-10.038 126.673-27.971v344.32l-316.961-285.298 64.901-58.419zM605.249 467.119l-55.119 49.613-90.496-81.455-90.494 81.455-316.961-285.298h439.201c0.002 95.334 44.53 180.452 113.869 235.685zM792.599 462.832c-127.595 0-231.401-103.806-231.401-231.398s103.806-231.401 231.401-231.401 231.401 103.806 231.401 231.401-103.806 231.398-231.401 231.398zM879.111 118.684l-86.512 38.665-86.512-38.665 10.040 94.224-63.509 70.328 92.719 19.568 47.262 82.132 47.262-82.132 92.719-19.568-63.509-70.328 10.040-94.224z" />
<glyph unicode="&#xe92a;" glyph-name="ini-onlineadmission" d="M1006.644 196.339l-234.305 323.254-8.678 15.186c-7.231 10.121-19.163 20.244-35.797 30.373-16.633 10.125-35.797 15.186-57.492 15.186h-316.746c-21.695 0-41.22-5.424-58.576-16.271s-28.566-19.888-33.627-27.119-8.316-13.017-9.763-17.356l-234.305-323.254c-11.57-15.909-17.356-33.265-17.356-52.068 0-24.587 9.040-45.922 27.119-64s39.413-27.119 64-27.119c11.57 0 23.142 2.169 34.712 6.508l141.017 41.22v-141.017h490.305v141.017l141.017-41.22c11.57-4.339 23.142-6.508 34.712-6.508 24.587 0 45.922 9.040 64 27.119s27.119 39.413 27.119 64c0 18.803-5.786 36.159-17.356 52.068zM757.153 280.949l-17.356 6.508c-24.587 5.786-46.644 5.786-66.169 0s-33.627-16.633-42.305-32.542-13.379-32.542-14.102-49.898 5.424-34.35 18.441-50.983 31.82-28.566 56.407-35.797h2.169l-182.237-60.746-182.237 60.746h4.339c23.142 7.231 41.22 19.163 54.237 35.797s19.163 33.627 18.441 50.983-5.424 33.989-14.102 49.898-22.78 26.756-42.305 32.542-41.583 5.786-66.169 0l-17.356-6.508v188.746l245.153-80.271 245.153 80.271v-188.746zM515.254 617.22c44.114 0 81.718 15.549 112.814 46.644 31.095 31.097 46.644 68.701 46.644 112.814 0 44.114-15.549 81.718-46.644 112.814s-68.701 46.644-112.814 46.644c-44.114 0-81.718-15.549-112.814-46.644s-46.644-68.701-46.644-112.814 15.549-81.718 46.644-112.814 68.701-46.644 112.814-46.644z" />
<glyph unicode="&#xe92b;" glyph-name="ini-accountledgerreport" d="M487.442 960h-362.314c-69.081 0-125.127-56.030-125.127-125.11v-362.314h487.425v487.425zM358.672 689.832h-84.441v-84.846h-54.158v84.846h-84.391v53.72h84.407v84.391h54.158v-84.407h84.441v-53.703zM1024 834.89c0 69.081-56.030 125.11-125.11 125.11h-362.297v-487.425h487.408v362.314zM879.28 685.971h-205.657v61.004h205.657v-61.004zM0 61.11c0-69.081 56.047-125.127 125.11-125.127h362.314v487.442h-487.425v-362.314zM152.712 289.698h63.061l32.93-57.008 32.138 57.008h61.24l-64.713-95.957 67.226-100.662h-64.157l-33.925 59.2-34.211-59.2h-62.555l67.226 99.684-64.258 96.935zM536.592-64h362.297c69.081 0 125.11 55.996 125.11 125.127v362.297h-487.408v-487.425zM678.631 257.392h195.675v-47.549h-195.675v47.549zM678.631 173.002h195.675v-47.532h-195.675v47.532z" />
<glyph unicode="&#xe92c;" glyph-name="ini-onlineadmissionreport" d="M913.38 828.411h-259.261c-58.56 0-110.462-29.008-142.096-73.415-31.635 44.407-83.537 73.415-142.096 73.415h-58.673v-67.233h58.673c58.99 0 106.567-47.237 106.567-106.227v-345.674c0-58.831-47.441-107.201-106.272-107.201h-259.555c-23.528 0-43.41 19.656-43.41 43.184v474.025c0 14.629 7.677 27.287 19.203 34.737v71.739c-49.955-10.87-86.458-54.121-86.458-106.476l1.925-584.305c0-42.187 33.401-76.992 75.543-76.992h346.172c1.291-24.977 21.988-44.18 47.305-44.18h84.918c25.362 0 46.037 19.225 47.328 44.18h343.341c42.142 0 75.543 34.805 75.543 76.992l1.925 584.305c0.045 60.688-49.932 109.126-110.62 109.126zM956.79 245.261c0-23.528-19.882-43.184-43.41-43.184h-259.555c-58.831 0-106.25 48.392-106.25 107.201v345.674c0 58.99 47.577 106.227 106.567 106.227h259.261c23.528 0 43.41-18.388 43.41-41.916l-0.023-474.002zM140.828 614.44c1.925-0.77 4.099-1.155 6.114-1.155 4.189 0 8.356 1.676 11.413 4.778l29.031 29.801c2.966 3.057 7.088 4.778 11.322 4.778 4.257 0 8.356-1.721 11.322-4.778l28.985-29.801c3.057-3.102 7.133-4.778 11.322-4.778 1.97 0 4.484 0.385 6.386 1.155 5.956 2.423 10.326 8.197 10.326 14.629v224.614c0 15.783-13.723 28.533-29.506 28.533h-77.672c-15.761 0-29.257-12.749-29.257-28.533v-224.614c0.023-6.431 4.28-12.206 10.213-14.629z" />
</font>
</defs>
</svg>
